<?xml version="1.0" encoding="utf-8"?>
<!-- Generator: Adobe Illustrator 19.0.0, SVG Export Plug-In . SVG Version: 6.00 Build 0)  -->
<svg version="1.1" id="Layer_1" xmlns="http://www.w3.org/2000/svg" xmlns:xlink="http://www.w3.org/1999/xlink" x="0px" y="0px"
	 viewBox="0 0 148 82" style="enable-background:new 0 0 148 82;" xml:space="preserve">
<style type="text/css">
	.st0{fill:none;stroke:#5ABA47;stroke-width:0.5;stroke-miterlimit:10;}
	.st1{clip-path:url(#SVGID_2_);fill:none;stroke:#5ABA47;stroke-width:0.5;stroke-miterlimit:10;}
	.st2{clip-path:url(#SVGID_2_);fill:#FFFFFF;}
	.st3{clip-path:url(#SVGID_2_);fill:none;stroke:#44302B;stroke-width:12;stroke-miterlimit:10;}
	.st4{clip-path:url(#SVGID_2_);fill:none;stroke:#939598;stroke-width:10;stroke-miterlimit:10;}
	.st5{clip-path:url(#SVGID_2_);fill:none;stroke:#594A42;stroke-width:14;stroke-miterlimit:10;}
	.st6{fill:#15381C;}
	.st7{font-family:'ArialMT';}
	.st8{font-size:8.4142px;}
	.st9{clip-path:url(#SVGID_4_);fill:none;stroke:#12512C;stroke-miterlimit:10;}
	.st10{font-family:'BrushScriptMT';}
	.st11{font-size:4.2071px;}
	.st12{clip-path:url(#SVGID_6_);fill:url(#SVGID_7_);}
	.st13{clip-path:url(#SVGID_9_);fill:none;stroke:#5ABA47;stroke-width:0.5;stroke-miterlimit:10;}
	.st14{clip-path:url(#SVGID_9_);fill:#FFFFFF;}
	.st15{clip-path:url(#SVGID_9_);fill:none;stroke:#FFFFFF;stroke-width:0.5;stroke-miterlimit:10;}
	.st16{clip-path:url(#SVGID_9_);fill:#0C3A28;}
	.st17{clip-path:url(#SVGID_9_);fill:#0C5F6D;}
	.st18{clip-path:url(#SVGID_9_);}
	.st19{clip-path:url(#SVGID_11_);fill:url(#SVGID_12_);}
	.st20{clip-path:url(#SVGID_14_);fill:none;stroke:#5ABA47;stroke-width:0.5;stroke-miterlimit:10;}
	.st21{clip-path:url(#SVGID_14_);fill:none;stroke:#000000;stroke-width:2;stroke-miterlimit:10;}
</style>
<line class="st0" x1="99.9" y1="2.8" x2="100.6" y2="2.8"/>
<g>
	<defs>
		<rect id="SVGID_1_" x="-243.4" y="-687.2" width="612" height="792"/>
	</defs>
	<clipPath id="SVGID_2_">
		<use xlink:href="#SVGID_1_"  style="overflow:visible;"/>
	</clipPath>
	<path class="st1" d="M208.1-2.2c-0.7,0-1.3-0.8-1-1.5"/>
	<path class="st1" d="M185.1-20.7c0.2-0.2,0.3-0.3,0.5-0.5"/>
	<line class="st1" x1="167.9" y1="-55.7" x2="169.4" y2="-55.7"/>
	<path class="st2" d="M48.6,34.1c9.7-13.7,20.8-20.6,25.3-20.2c10.6,1,9.8,20.1,30.9,27.1c7.5,2.5,15.3,2.8,21,2.5"/>
	<path class="st3" d="M48.6,34.1c9.7-13.7,20.8-20.6,25.3-20.2c10.6,1,9.8,20.1,30.9,27.1c7.5,2.5,15.3,2.8,21,2.5"/>
	<path class="st2" d="M18.1,48.1c1.4-2.1,3.5-4.7,6.3-4.8c3.4-0.2,4.9,3.4,8.8,4.2c0.9,0.2,1.8,0.4,2.8,0.3c3.7-0.2,4.2-3,7.1-3.9
		c5.3-1.6,11.1,5.9,22.7,6.2c6.4,0.2,12.1-1.9,14.1-2.6c5.8-2.1,5.4-3.6,8.9-4.4c8-1.8,14.3,4.8,25.5,6.2c5.6,0.7,14.3,0.3,26.5-5.5
		"/>
	<path class="st4" d="M18.1,48.1c1.4-2.1,3.5-4.7,6.3-4.8c3.4-0.2,4.9,3.4,8.8,4.2c0.9,0.2,1.8,0.4,2.8,0.3c3.7-0.2,4.2-3,7.1-3.9
		c5.3-1.6,11.1,5.9,22.7,6.2c6.4,0.2,12.1-1.9,14.1-2.6c5.8-2.1,5.4-3.6,8.9-4.4c8-1.8,14.3,4.8,25.5,6.2c5.6,0.7,14.3,0.3,26.5-5.5
		"/>
	<path class="st2" d="M2.3,48.5c1.4-0.9,3.6-2,6.5-2c3.5-0.1,4.9,3.3,8.8,3.6c2.4,0.2,4.3-1.2,9.8-3.2"/>
	<path class="st4" d="M2.3,48.5c1.4-0.9,3.6-2,6.5-2c3.5-0.1,4.9,3.3,8.8,3.6c2.4,0.2,4.3-1.2,9.8-3.2"/>
	<path class="st2" d="M73.5,25.4c-1.4-1.9-2.7-2.3-3.5-2.3c-5.7-0.2-8.9,16.3-17.8,16.7c-3.5,0.2-6-2.3-10.1-1.4
		c-2.3,0.5-3.8,1.7-4.7,2.6"/>
	<path class="st5" d="M73.5,25.4c-1.4-1.9-2.7-2.3-3.5-2.3c-5.7-0.2-8.9,16.3-17.8,16.7c-3.5,0.2-6-2.3-10.1-1.4
		c-2.3,0.5-3.8,1.7-4.7,2.6"/>
</g>
<text transform="matrix(1.5886 -4.229947e-003 6.719740e-003 1 8.9417 59.6604)" class="st6 st7 st8">nature Sight restaurant</text>
<g>
	<defs>
		<rect id="SVGID_3_" x="-243.4" y="-687.2" width="612" height="792"/>
	</defs>
	<clipPath id="SVGID_4_">
		<use xlink:href="#SVGID_3_"  style="overflow:visible;"/>
	</clipPath>
	<path class="st9" d="M11,59.7l0-2.4c0-0.6,0.2-0.9,0.5-1.1c0.4-0.2,0.8-0.3,1.3-0.3c0.3,0,0.6,0,0.8,0.1c0.2,0.1,0.4,0.2,0.5,0.4
		c0.1,0.1,0.1,0.4,0.1,0.7l0,2.7l1.2,0l0-2.7c0-0.3,0-0.6-0.1-0.7c-0.1-0.2-0.2-0.4-0.4-0.5c-0.2-0.2-0.4-0.3-0.8-0.4
		c-0.4-0.1-0.7-0.1-1.2-0.1c-1,0-1.7,0.2-2.2,0.7l0-0.6l-1.1,0l0,4.4L11,59.7z"/>
	<path class="st9" d="M21.6,57.7c0,0.3-0.1,0.6-0.2,0.7c-0.2,0.2-0.4,0.4-0.8,0.5c-0.4,0.1-0.8,0.2-1.2,0.2c-0.5,0-0.8-0.1-1-0.2
		c-0.2-0.1-0.4-0.3-0.4-0.5c0-0.1,0.1-0.2,0.2-0.4c0.1-0.1,0.3-0.2,0.5-0.2c0.2-0.1,0.5-0.1,1-0.2c0.9-0.1,1.5-0.2,1.9-0.3
		L21.6,57.7z M22,59.6l1.2,0c-0.1-0.2-0.2-0.3-0.3-0.5c-0.1-0.2-0.1-0.6-0.1-1.3l0-1c0-0.3,0-0.6-0.1-0.7c-0.1-0.2-0.2-0.4-0.4-0.5
		c-0.2-0.1-0.4-0.2-0.8-0.3c-0.4-0.1-0.9-0.1-1.4-0.1c-0.6,0-1.1,0.1-1.6,0.2c-0.5,0.1-0.8,0.3-1,0.4c-0.2,0.2-0.4,0.4-0.5,0.8
		l1.1,0.1c0.1-0.3,0.3-0.5,0.6-0.6c0.3-0.1,0.7-0.2,1.2-0.2c0.6,0,1,0.1,1.3,0.2c0.2,0.1,0.3,0.3,0.3,0.6c0,0,0,0.1,0,0.2
		c-0.4,0.1-1.1,0.2-2.1,0.3c-0.5,0-0.8,0.1-1,0.1c-0.3,0.1-0.6,0.1-0.8,0.2c-0.2,0.1-0.5,0.2-0.6,0.4s-0.2,0.4-0.2,0.6
		c0,0.4,0.2,0.7,0.6,0.9c0.4,0.2,1,0.3,1.8,0.3c0.5,0,0.9-0.1,1.3-0.1c0.4-0.1,0.8-0.3,1.3-0.5C21.8,59.3,21.9,59.5,22,59.6z"/>
	<path class="st9" d="M26.7,59c-0.2,0-0.3,0-0.4-0.1c-0.1,0-0.2-0.1-0.2-0.1c0-0.1-0.1-0.2-0.1-0.4l0-2.6l1.2,0l0-0.6l-1.2,0l0-1.5
		l-1.2,0.4l0,1.1l-0.9,0l0,0.6l0.9,0l0,2.5c0,0.4,0.1,0.7,0.1,0.9c0.1,0.1,0.3,0.2,0.5,0.3c0.2,0.1,0.6,0.1,1,0.1
		c0.3,0,0.6,0,0.9-0.1L27.2,59C27,59,26.8,59,26.7,59z"/>
	<path class="st9" d="M34,59.6l0-4.4l-1.2,0l0,2.3c0,0.4-0.1,0.7-0.2,0.9c-0.1,0.2-0.3,0.4-0.7,0.5c-0.3,0.1-0.6,0.2-1,0.2
		c-0.4,0-0.6-0.1-0.9-0.2c-0.2-0.1-0.4-0.3-0.5-0.5c0-0.1-0.1-0.4-0.1-0.8l0-2.4l-1.2,0l0,2.7c0,0.3,0,0.5,0.1,0.7
		c0.1,0.2,0.2,0.4,0.4,0.5c0.2,0.1,0.4,0.3,0.8,0.4c0.4,0.1,0.7,0.1,1.1,0.1c0.9,0,1.7-0.3,2.2-0.7l0,0.6L34,59.6z"/>
	<path class="st9" d="M37,59.6l0-2.3c0-0.3,0.1-0.6,0.2-0.9c0.1-0.2,0.2-0.3,0.4-0.4c0.2-0.1,0.4-0.1,0.7-0.1c0.3,0,0.6,0.1,0.9,0.2
		l0.4-0.7c-0.4-0.2-0.8-0.2-1.2-0.2c-0.3,0-0.5,0.1-0.8,0.1c-0.2,0.1-0.5,0.3-0.7,0.6l0-0.7l-1.1,0l0,4.4L37,59.6z"/>
	<path class="st9" d="M41.7,56.1c0.4-0.2,0.8-0.3,1.4-0.3c0.6,0,1.1,0.1,1.5,0.4c0.2,0.2,0.4,0.5,0.4,0.8l-3.9,0
		C41.2,56.6,41.4,56.3,41.7,56.1z M44.3,58.8c-0.3,0.1-0.7,0.2-1.1,0.2c-0.6,0-1.1-0.1-1.5-0.4c-0.4-0.3-0.6-0.6-0.7-1.1l5.2,0
		c0-0.1,0-0.2,0-0.2c0-0.7-0.3-1.3-0.9-1.7c-0.6-0.4-1.3-0.6-2.3-0.6c-1,0-1.7,0.2-2.3,0.6c-0.6,0.4-0.9,1-0.9,1.7
		c0,0.7,0.3,1.3,0.9,1.7c0.6,0.4,1.4,0.6,2.4,0.6c0.8,0,1.5-0.1,2-0.4c0.5-0.2,0.9-0.6,1.1-1L45,58.2C44.8,58.5,44.6,58.7,44.3,58.8
		z"/>
	<path class="st9" d="M51.6,58.7c0.3,0.3,0.8,0.6,1.4,0.7c0.6,0.2,1.3,0.2,2.2,0.2c0.7,0,1.3-0.1,1.8-0.2c0.5-0.2,1-0.4,1.3-0.7
		c0.3-0.3,0.4-0.6,0.4-0.9c0-0.3-0.1-0.6-0.4-0.9c-0.3-0.2-0.7-0.5-1.2-0.6C56.7,56.3,56,56.1,55,56c-1-0.1-1.7-0.3-1.9-0.4
		c-0.2-0.1-0.4-0.3-0.4-0.5c0-0.2,0.2-0.5,0.5-0.6c0.3-0.2,0.9-0.3,1.7-0.3c0.7,0,1.3,0.1,1.7,0.3c0.4,0.2,0.6,0.5,0.7,0.9l1.2-0.1
		c0-0.4-0.2-0.7-0.5-0.9c-0.3-0.3-0.7-0.5-1.3-0.6c-0.5-0.1-1.2-0.2-1.9-0.2c-0.6,0-1.2,0.1-1.8,0.2c-0.5,0.1-0.9,0.3-1.2,0.6
		c-0.3,0.3-0.4,0.5-0.4,0.9c0,0.3,0.1,0.5,0.3,0.7c0.2,0.2,0.6,0.4,1,0.6c0.4,0.1,1,0.2,1.8,0.4c0.9,0.1,1.4,0.2,1.7,0.3
		c0.4,0.1,0.7,0.2,0.9,0.4c0.2,0.1,0.3,0.3,0.3,0.5c0,0.2-0.1,0.4-0.3,0.5c-0.2,0.2-0.5,0.3-0.8,0.4c-0.4,0.1-0.8,0.1-1.3,0.1
		c-0.5,0-1-0.1-1.5-0.2c-0.4-0.1-0.8-0.3-1-0.5c-0.2-0.2-0.3-0.4-0.4-0.7l-1.2,0.1C51.1,58,51.3,58.4,51.6,58.7z"/>
	<path class="st9" d="M61.5,59.5l0-4.4l-1.2,0l0,4.4L61.5,59.5z M61.5,54.3l0-0.9l-1.2,0l0,0.9L61.5,54.3z"/>
	<path class="st9" d="M64.6,56.1c0.4-0.3,0.8-0.4,1.3-0.4c0.5,0,1,0.1,1.4,0.4c0.4,0.3,0.6,0.7,0.6,1.2c0,0.6-0.2,1-0.5,1.2
		c-0.4,0.3-0.8,0.4-1.4,0.4c-0.5,0-1-0.1-1.4-0.4c-0.4-0.3-0.5-0.7-0.6-1.3C64,56.7,64.2,56.3,64.6,56.1z M63.8,60.9
		c0.5,0.2,1.2,0.3,2,0.3c0.7,0,1.3-0.1,1.8-0.3c0.5-0.2,0.8-0.4,1-0.7c0.2-0.3,0.3-0.8,0.3-1.4l0-3.8l-1.1,0l0,0.5
		c-0.5-0.4-1.2-0.6-2-0.6c-0.6,0-1.1,0.1-1.6,0.3c-0.5,0.2-0.8,0.5-1,0.8c-0.2,0.4-0.4,0.7-0.4,1.2c0,0.6,0.3,1.1,0.8,1.6
		c0.5,0.4,1.3,0.6,2.2,0.6c0.8,0,1.4-0.2,1.9-0.6c0,0.5,0,0.8-0.1,0.9c-0.1,0.2-0.3,0.4-0.6,0.6c-0.3,0.1-0.7,0.2-1.3,0.2
		c-0.5,0-0.9-0.1-1.2-0.2c-0.2-0.1-0.4-0.3-0.4-0.5l-1.1-0.1C63.1,60.3,63.3,60.7,63.8,60.9z"/>
	<path class="st9" d="M71.9,59.5l0-2.4c0-0.3,0.1-0.6,0.2-0.8c0.1-0.2,0.3-0.3,0.7-0.5c0.3-0.1,0.6-0.2,1-0.2c0.5,0,0.8,0.1,1.1,0.2
		c0.3,0.2,0.4,0.4,0.4,0.8l0,2.8l1.2,0l0-2.8c0-0.4-0.1-0.8-0.3-1c-0.2-0.2-0.4-0.4-0.8-0.5c-0.4-0.1-0.8-0.2-1.3-0.2
		c-0.8,0-1.5,0.2-2.1,0.6l0-2.2l-1.2,0l0,6L71.9,59.5z"/>
	<path class="st9" d="M80.2,58.8c-0.2,0-0.3,0-0.4-0.1c-0.1,0-0.2-0.1-0.2-0.1c0-0.1-0.1-0.2-0.1-0.4l0-2.6l1.2,0l0-0.6l-1.2,0
		l0-1.5L78.3,54l0,1.1l-0.9,0l0,0.6l0.9,0l0,2.5c0,0.4,0.1,0.7,0.1,0.9c0.1,0.1,0.3,0.2,0.5,0.3c0.2,0.1,0.6,0.1,1,0.1
		c0.3,0,0.6,0,0.9-0.1l-0.2-0.7C80.5,58.8,80.3,58.8,80.2,58.8z"/>
	<path class="st9" d="M86.7,59.5l0-2.3c0-0.3,0.1-0.6,0.2-0.9c0.1-0.2,0.2-0.3,0.4-0.4c0.2-0.1,0.4-0.1,0.7-0.1
		c0.3,0,0.6,0.1,0.9,0.2l0.4-0.7c-0.4-0.2-0.8-0.2-1.2-0.2c-0.3,0-0.5,0.1-0.8,0.1c-0.2,0.1-0.5,0.3-0.7,0.6l0-0.7l-1.1,0l0,4.4
		L86.7,59.5z"/>
	<path class="st9" d="M91.5,55.9c0.4-0.2,0.8-0.3,1.4-0.3c0.6,0,1.1,0.1,1.5,0.4c0.2,0.2,0.4,0.5,0.4,0.8l-3.9,0
		C90.9,56.5,91.1,56.2,91.5,55.9z M94,58.7c-0.3,0.1-0.7,0.2-1.1,0.2c-0.6,0-1.1-0.1-1.5-0.4c-0.4-0.3-0.6-0.6-0.7-1.1l5.2,0
		c0-0.1,0-0.2,0-0.2c0-0.7-0.3-1.3-0.9-1.7c-0.6-0.4-1.3-0.6-2.3-0.6c-1,0-1.7,0.2-2.3,0.6c-0.6,0.4-0.9,1-0.9,1.7
		c0,0.7,0.3,1.3,0.9,1.7c0.6,0.4,1.4,0.6,2.4,0.6c0.8,0,1.5-0.1,2-0.4c0.5-0.2,0.9-0.6,1.1-1L94.8,58C94.6,58.3,94.3,58.6,94,58.7z"
		/>
	<path class="st9" d="M97.9,59.2c0.5,0.2,1.2,0.4,2.1,0.3c0.5,0,1-0.1,1.5-0.2c0.4-0.1,0.8-0.3,1-0.5c0.2-0.2,0.3-0.5,0.3-0.7
		c0-0.3-0.1-0.5-0.3-0.6c-0.2-0.2-0.4-0.3-0.8-0.4c-0.3-0.1-0.9-0.2-1.7-0.3c-0.6-0.1-0.9-0.2-1-0.2c-0.2-0.1-0.4-0.1-0.5-0.2
		c-0.1-0.1-0.1-0.2-0.1-0.3c0-0.2,0.1-0.3,0.3-0.4c0.2-0.1,0.6-0.2,1.2-0.2c0.5,0,0.8,0.1,1.1,0.2c0.3,0.1,0.4,0.3,0.5,0.5l1.1-0.1
		c-0.1-0.3-0.2-0.5-0.4-0.7c-0.2-0.2-0.5-0.3-0.9-0.4c-0.4-0.1-0.9-0.1-1.4-0.1c-0.4,0-0.7,0-1,0.1c-0.3,0.1-0.6,0.1-0.7,0.2
		c-0.2,0.1-0.4,0.2-0.6,0.4c-0.1,0.2-0.2,0.3-0.2,0.5c0,0.2,0.1,0.4,0.3,0.6c0.2,0.2,0.4,0.3,0.8,0.4c0.3,0.1,0.9,0.2,1.8,0.4
		c0.6,0.1,1,0.2,1.2,0.2c0.2,0.1,0.3,0.2,0.3,0.4c0,0.2-0.1,0.3-0.4,0.5c-0.3,0.1-0.7,0.2-1.2,0.2c-0.5,0-1-0.1-1.3-0.2
		c-0.3-0.2-0.5-0.4-0.5-0.7L97,58.1C97.1,58.6,97.4,58.9,97.9,59.2z"/>
	<path class="st9" d="M106.2,58.8c-0.2,0-0.3,0-0.4-0.1c-0.1,0-0.2-0.1-0.2-0.1c0-0.1-0.1-0.2-0.1-0.4l0-2.6l1.2,0l0-0.6l-1.2,0
		l0-1.5l-1.2,0.4l0,1.1l-0.9,0l0,0.6l0.9,0l0,2.5c0,0.4,0.1,0.7,0.1,0.9c0.1,0.1,0.3,0.2,0.5,0.3c0.2,0.1,0.6,0.1,1,0.1
		c0.3,0,0.6,0,0.9-0.1l-0.2-0.7C106.5,58.8,106.3,58.8,106.2,58.8z"/>
	<path class="st9" d="M112.3,57.5c0,0.3-0.1,0.6-0.2,0.7c-0.2,0.2-0.4,0.4-0.8,0.5c-0.4,0.1-0.8,0.2-1.2,0.2c-0.5,0-0.8-0.1-1-0.2
		c-0.2-0.1-0.4-0.3-0.4-0.5c0-0.1,0.1-0.2,0.2-0.4c0.1-0.1,0.3-0.2,0.5-0.2c0.2-0.1,0.5-0.1,1-0.2c0.9-0.1,1.5-0.2,1.9-0.3
		L112.3,57.5z M112.6,59.4l1.2,0c-0.1-0.2-0.2-0.3-0.3-0.5c-0.1-0.2-0.1-0.6-0.1-1.3l0-1c0-0.3,0-0.6-0.1-0.7
		c-0.1-0.2-0.2-0.4-0.4-0.5c-0.2-0.1-0.4-0.2-0.8-0.3c-0.4-0.1-0.9-0.1-1.4-0.1c-0.6,0-1.1,0.1-1.6,0.2c-0.5,0.1-0.8,0.3-1,0.4
		c-0.2,0.2-0.4,0.4-0.5,0.8l1.1,0.1c0.1-0.3,0.3-0.5,0.6-0.6c0.3-0.1,0.7-0.2,1.2-0.2c0.6,0,1,0.1,1.3,0.2c0.2,0.1,0.3,0.3,0.3,0.6
		c0,0,0,0.1,0,0.2c-0.4,0.1-1.1,0.2-2.1,0.3c-0.5,0-0.8,0.1-1,0.1c-0.3,0.1-0.6,0.1-0.8,0.2c-0.2,0.1-0.5,0.2-0.6,0.4
		c-0.2,0.2-0.2,0.4-0.2,0.6c0,0.4,0.2,0.7,0.6,0.9c0.4,0.2,1,0.3,1.8,0.3c0.5,0,0.9-0.1,1.3-0.1c0.4-0.1,0.8-0.3,1.3-0.5
		C112.4,59.1,112.5,59.2,112.6,59.4z"/>
	<path class="st9" d="M120.9,59.4l0-4.4l-1.2,0l0,2.3c0,0.4-0.1,0.7-0.2,0.9c-0.1,0.2-0.3,0.4-0.7,0.5c-0.3,0.1-0.6,0.2-1,0.2
		c-0.4,0-0.6-0.1-0.9-0.2c-0.2-0.1-0.4-0.3-0.5-0.5c0-0.1-0.1-0.4-0.1-0.8l0-2.4l-1.2,0l0,2.7c0,0.3,0,0.5,0.1,0.7
		c0.1,0.2,0.2,0.4,0.4,0.5c0.2,0.1,0.4,0.3,0.8,0.4c0.4,0.1,0.7,0.1,1.1,0.1c0.9,0,1.7-0.3,2.2-0.7l0,0.6L120.9,59.4z"/>
	<path class="st9" d="M123.9,59.4l0-2.3c0-0.3,0.1-0.6,0.2-0.9c0.1-0.2,0.2-0.3,0.4-0.4c0.2-0.1,0.4-0.1,0.7-0.1
		c0.3,0,0.6,0.1,0.9,0.2l0.4-0.7c-0.4-0.2-0.8-0.2-1.2-0.2c-0.3,0-0.5,0.1-0.8,0.1c-0.2,0.1-0.5,0.3-0.7,0.6l0-0.7l-1.1,0l0,4.4
		L123.9,59.4z"/>
	<path class="st9" d="M131.6,57.4c0,0.3-0.1,0.6-0.2,0.7c-0.2,0.2-0.4,0.4-0.8,0.5c-0.4,0.1-0.8,0.2-1.2,0.2c-0.5,0-0.8-0.1-1-0.2
		c-0.2-0.1-0.4-0.3-0.4-0.5c0-0.1,0.1-0.2,0.2-0.4c0.1-0.1,0.3-0.2,0.5-0.2c0.2-0.1,0.5-0.1,1-0.2c0.9-0.1,1.5-0.2,1.9-0.3
		L131.6,57.4z M131.9,59.3l1.2,0c-0.1-0.2-0.2-0.3-0.3-0.5c-0.1-0.2-0.1-0.6-0.1-1.3l0-1c0-0.3,0-0.6-0.1-0.7
		c-0.1-0.2-0.2-0.4-0.4-0.5s-0.4-0.2-0.8-0.3c-0.4-0.1-0.9-0.1-1.4-0.1c-0.6,0-1.1,0.1-1.6,0.2c-0.5,0.1-0.8,0.3-1,0.4
		c-0.2,0.2-0.4,0.4-0.5,0.8l1.1,0.1c0.1-0.3,0.3-0.5,0.6-0.6c0.3-0.1,0.7-0.2,1.2-0.2c0.6,0,1,0.1,1.3,0.2c0.2,0.1,0.3,0.3,0.3,0.6
		c0,0,0,0.1,0,0.2c-0.4,0.1-1.1,0.2-2.1,0.3c-0.5,0-0.8,0.1-1,0.1c-0.3,0.1-0.6,0.1-0.8,0.2c-0.2,0.1-0.5,0.2-0.6,0.4
		c-0.2,0.2-0.2,0.4-0.2,0.6c0,0.4,0.2,0.7,0.6,0.9c0.4,0.2,1,0.3,1.8,0.3c0.5,0,0.9-0.1,1.3-0.1c0.4-0.1,0.8-0.3,1.3-0.5
		C131.7,59,131.8,59.2,131.9,59.3z"/>
	<path class="st9" d="M135.8,59.3l0-2.4c0-0.6,0.2-0.9,0.5-1.1c0.4-0.2,0.8-0.3,1.3-0.3c0.3,0,0.6,0,0.8,0.1
		c0.2,0.1,0.4,0.2,0.5,0.4c0.1,0.1,0.1,0.4,0.1,0.7l0,2.7l1.2,0l0-2.7c0-0.3,0-0.6-0.1-0.7c-0.1-0.2-0.2-0.4-0.4-0.5
		c-0.2-0.2-0.4-0.3-0.8-0.4c-0.4-0.1-0.7-0.1-1.2-0.1c-1,0-1.7,0.2-2.2,0.7l0-0.6l-1.1,0l0,4.4L135.8,59.3z"/>
	<path class="st9" d="M144.1,58.7c-0.2,0-0.3,0-0.4-0.1c-0.1,0-0.2-0.1-0.2-0.1c0-0.1-0.1-0.2-0.1-0.4l0-2.6l1.2,0l0-0.6l-1.2,0
		l0-1.5l-1.2,0.4l0,1.1l-0.9,0l0,0.6l0.9,0l0,2.5c0,0.4,0.1,0.7,0.1,0.9c0.1,0.1,0.3,0.2,0.5,0.3c0.2,0.1,0.6,0.1,1,0.1
		c0.3,0,0.6,0,0.9-0.1l-0.2-0.7C144.4,58.7,144.2,58.7,144.1,58.7z"/>
</g>
<text transform="matrix(1.5886 0 0 1 2.6717 40.8608)"><tspan x="0" y="0" class="st10 st11">f</tspan><tspan x="1.1" y="0" class="st10 st11">ami</tspan><tspan x="6.1" y="0" class="st10 st11">l</tspan><tspan x="7" y="0" class="st10 st11">y </tspan><tspan x="9.7" y="0" class="st10 st11">f</tspan><tspan x="10.8" y="0" class="st10 st11">irst</tspan></text>
<g>
	<defs>
		<path id="SVGID_5_" d="M30.4,19.8c-2.9,0.5-3,7.4,2.2,10.5c0.4,0.2,2.9,1.7,4.7,1.3c2.5-0.6,2.6-4.6,0.1-7.7
			c-1.5-1.9-4.7-4.2-6.6-4.2C30.6,19.7,30.5,19.7,30.4,19.8"/>
	</defs>
	<clipPath id="SVGID_6_">
		<use xlink:href="#SVGID_5_"  style="overflow:visible;"/>
	</clipPath>
	
		<linearGradient id="SVGID_7_" gradientUnits="userSpaceOnUse" x1="-230.009" y1="435.9315" x2="-229.6326" y2="435.9315" gradientTransform="matrix(22.0624 -20.733 -14.3946 -15.3176 11379.1162 1938.4084)">
		<stop  offset="0" style="stop-color:#00AB62"/>
		<stop  offset="8.602150e-002" style="stop-color:#00AB62"/>
		<stop  offset="0.1285" style="stop-color:#00B159"/>
		<stop  offset="0.1787" style="stop-color:#4EB84F"/>
		<stop  offset="0.23" style="stop-color:#68BD48"/>
		<stop  offset="0.2826" style="stop-color:#76C044"/>
		<stop  offset="0.3387" style="stop-color:#7AC143"/>
		<stop  offset="0.6685" style="stop-color:#7AB19B"/>
		<stop  offset="0.9355" style="stop-color:#1481B5"/>
		<stop  offset="1" style="stop-color:#5887AC"/>
	</linearGradient>
	<polygon class="st12" points="17.6,25.5 34,15.8 49.6,26.3 33.3,36 	"/>
</g>
<g>
	<defs>
		<rect id="SVGID_8_" x="-243.4" y="-687.2" width="612" height="792"/>
	</defs>
	<clipPath id="SVGID_9_">
		<use xlink:href="#SVGID_8_"  style="overflow:visible;"/>
	</clipPath>
	<path class="st13" d="M37.3,31.6c-1.8,0.4-4.3-1.1-4.7-1.3c-5.2-3.1-5.1-10-2.2-10.5c1.9-0.4,5.4,2.1,7.1,4.1
		C39.9,27,39.8,31.1,37.3,31.6z"/>
	<path class="st14" d="M37.5,29.9c-1.5,0.5-5.4-1.7-6-4.6c-0.2-0.9-0.2-2.6,0.9-2.9c1.3-0.4,4.1,1.3,5.2,3.3
		C38.4,27.2,38.7,29.5,37.5,29.9"/>
	<path class="st15" d="M37.5,29.9c-1.5,0.5-5.4-1.7-6-4.6c-0.2-0.9-0.2-2.6,0.9-2.9c1.3-0.4,4.1,1.3,5.2,3.3
		C38.4,27.2,38.7,29.5,37.5,29.9z"/>
	<path class="st16" d="M35.5,32c-1.2,1.1-4.6,0.8-5.2,0.7c-7.1-0.7-12.8-6.9-10.8-8.5c1.4-1.1,6.4-0.3,9.6,0.9
		C33.8,26.8,37.2,30.5,35.5,32"/>
	<path class="st13" d="M35.5,32c-1.2,1.1-4.6,0.8-5.2,0.7c-7.1-0.7-12.8-6.9-10.8-8.5c1.4-1.1,6.4-0.3,9.6,0.9
		C33.8,26.8,37.2,30.5,35.5,32z"/>
	<path class="st14" d="M30.5,31.9c-2-0.5-4.1-1.7-5.1-2.5c-1-0.9-1.2-1.6-0.9-2.2c0.4-0.8,3.2-0.7,5.2-0.1c3.1,1,5.7,3.5,5.1,4.6
		C34.5,32.4,32,32.2,30.5,31.9"/>
	<path class="st15" d="M30.5,31.9c-2-0.5-4.1-1.7-5.1-2.5c-1-0.9-1.2-1.6-0.9-2.2c0.4-0.8,3.2-0.7,5.2-0.1c3.1,1,5.7,3.5,5.1,4.6
		C34.5,32.4,32,32.2,30.5,31.9z"/>
	<path class="st17" d="M35.2,34c-0.4,1.2-3.8,1.8-4.3,1.9c-6.9,1.3-15.8-2.3-15-4.1c0.6-1.2,5.7-1.9,9.2-1.8
		C30.5,30.2,35.8,32.4,35.2,34"/>
	<path class="st13" d="M35.2,34c-0.4,1.2-3.8,1.8-4.3,1.9c-6.9,1.3-15.8-2.3-15-4.1c0.6-1.2,5.7-1.9,9.2-1.8
		C30.5,30.2,35.8,32.4,35.2,34z"/>
	<path class="st18" d="M32.2,37.8c-0.6-0.1,0.3-3.6,4.2-6.3c3.3-2.2,8-3.4,8.3-3.1c0.2,0.2-0.6,1.3-2.6,1.8c-3.2,0.8-4,0.8-5.5,1.8
		c-1.7,1.1-0.3,2.7-2.8,3.8C33.2,36,32.5,37.8,32.2,37.8"/>
	<path class="st13" d="M32.2,37.8c-0.6-0.1,0.3-3.6,4.2-6.3c3.3-2.2,8-3.4,8.3-3.1c0.2,0.2-0.6,1.3-2.6,1.8c-3.2,0.8-4,0.8-5.5,1.8
		c-1.7,1.1-0.3,2.7-2.8,3.8C33.2,36,32.5,37.8,32.2,37.8z"/>
</g>
<g>
	<defs>
		<path id="SVGID_10_" d="M144.7,66.9h0.9H144.7z"/>
	</defs>
	<clipPath id="SVGID_11_">
		<use xlink:href="#SVGID_10_"  style="overflow:visible;"/>
	</clipPath>
	
		<linearGradient id="SVGID_12_" gradientUnits="userSpaceOnUse" x1="-286.309" y1="498.2473" x2="-285.9377" y2="498.2473" gradientTransform="matrix(2.5 0 0 -2.5 860.5 1312.5)">
		<stop  offset="0" style="stop-color:#00AB62"/>
		<stop  offset="8.602150e-002" style="stop-color:#00AB62"/>
		<stop  offset="0.1285" style="stop-color:#00B159"/>
		<stop  offset="0.1787" style="stop-color:#4EB84F"/>
		<stop  offset="0.23" style="stop-color:#68BD48"/>
		<stop  offset="0.2826" style="stop-color:#76C044"/>
		<stop  offset="0.3387" style="stop-color:#7AC143"/>
		<stop  offset="0.6685" style="stop-color:#7AB19B"/>
		<stop  offset="0.9355" style="stop-color:#1481B5"/>
		<stop  offset="1" style="stop-color:#5887AC"/>
	</linearGradient>
	<path class="st19" d="M144.7,66.9h0.9H144.7z"/>
</g>
<g>
	<defs>
		<rect id="SVGID_13_" x="-243.4" y="-684.4" width="612" height="792"/>
	</defs>
	<clipPath id="SVGID_14_">
		<use xlink:href="#SVGID_13_"  style="overflow:visible;"/>
	</clipPath>
	<line class="st20" x1="144.7" y1="67.5" x2="145.7" y2="67.5"/>
	<line class="st21" x1="130.6" y1="68.1" x2="130.4" y2="67.5"/>
</g>
</svg>
