<?xml version="1.0" encoding="utf-8"?>
<!-- Generator: Adobe Illustrator 19.0.0, SVG Export Plug-In . SVG Version: 6.00 Build 0)  -->
<svg version="1.1" id="Layer_1" xmlns="http://www.w3.org/2000/svg" xmlns:xlink="http://www.w3.org/1999/xlink" x="0px" y="0px"
	 viewBox="0 0 612 792" style="enable-background:new 0 0 612 792;" xml:space="preserve">
<style type="text/css">
	.st0{fill:#FEFEFE;}
	.st1{fill:#857976;}
	.st2{fill:#DBF0D8;}
	.st3{fill:#929497;}
	.st4{fill:#43302A;}
	.st5{fill:#5A4A42;}
	.st6{fill:#17606D;}
	.st7{fill:#939598;}
	.st8{fill:#0B3B29;}
	.st9{fill:#153F22;}
	.st10{fill:#164224;}
	.st11{fill:#154123;}
	.st12{fill:#164124;}
	.st13{fill:#164225;}
	.st14{fill:#174426;}
	.st15{fill:#1B472A;}
	.st16{fill:#1A4729;}
	.st17{fill:#184527;}
	.st18{fill:#1C4A2C;}
	.st19{fill:#124021;}
	.st20{fill:#1F4B2E;}
	.st21{fill:#3992AB;}
	.st22{fill:#235133;}
	.st23{fill:#67B570;}
	.st24{fill:#164426;}
	.st25{fill:#164526;}
	.st26{fill:#0E110D;}
	.st27{fill:#245335;}
	.st28{fill:#184829;}
	.st29{fill:#131712;}
	.st30{fill:#78BD4F;}
	.st31{fill:#4294A6;}
	.st32{fill:#345D42;}
	.st33{fill:#2E593D;}
	.st34{fill:#214E30;}
	.st35{fill:#113A1D;}
	.st36{fill:#275437;}
	.st37{fill:#123F21;}
	.st38{fill:#2F5B3E;}
	.st39{fill:#124122;}
	.st40{fill:#285437;}
	.st41{fill:#1E4E30;}
	.st42{fill:#444444;}
	.st43{fill:#225133;}
	.st44{fill:#12512C;}
	.st45{fill:#373737;}
	.st46{fill:#282828;}
	.st47{fill:#79B778;}
	.st48{fill:#3F875E;}
	.st49{fill:#4C6246;}
	.st50{fill:#1F1F1F;}
	.st51{fill:#353535;}
	.st52{fill:#70B38B;}
	.st53{fill:#2F2F2F;}
	.st54{fill:#303231;}
	.st55{fill:#323232;}
	.st56{fill:#619558;}
	.st57{fill:#1C1C1C;}
	.st58{fill:#6D6D6D;}
	.st59{fill:#292929;}
	.st60{fill:#050505;}
	.st61{fill:#66A4A9;}
	.st62{fill:#184628;}
	.st63{fill:#797979;}
	.st64{fill:#161616;}
	.st65{fill:#1E1E1E;}
	.st66{fill:#2D2D2D;}
	.st67{fill:#333333;}
	.st68{fill:#4A4A4A;}
	.st69{fill:#2C2C2C;}
	.st70{fill:#252525;}
	.st71{fill:#49755A;}
	.st72{fill:#0D0D0D;}
	.st73{fill:#BABABA;}
	.st74{fill:#3F6D51;}
	.st75{fill:#212121;}
	.st76{fill:#FDFDFD;}
	.st77{fill:#FCFDFD;}
	.st78{fill:#6BAE51;}
	.st79{fill:#234F37;}
	.st80{fill:#3DB653;}
	.st81{fill:#F6F8F7;}
	.st82{fill:#F0F4F2;}
	.st83{fill:#F8F9F9;}
	.st84{fill:#FAFBFB;}
	.st85{fill:#5D856D;}
	.st86{fill:#F9FAFA;}
	.st87{fill:#255637;}
	.st88{fill:#F8FAF9;}
	.st89{fill:#225334;}
</style>
<g>
	<path class="st0" d="M452.5,338.9c0,25.7,0,51.4,0.1,77.1c0,2.2-0.4,2.6-2.6,2.6c-93-0.1-185.9-0.1-278.9,0c-2.2,0-2.6-0.4-2.6-2.6
		c0.1-81.4,0.1-162.7,0-244.1c0-2.2,0.4-2.6,2.6-2.6c45.8,0.1,91.5,0.1,137.3,0.1c0.3,0.3,0.2,0.7,0,1
		c-12.2,5.4-19.9,15.4-27.4,25.7c-8,11-14.2,23-20.1,35.2c-0.9,1.8-1.4,3.3,1.1,4.3c2.2,0.9,3.8,1.8,5.2-1.3
		c5.5-11.7,11.6-23.1,19.2-33.6c5-7,10-13.9,17-19.2c0.7-0.5,1.3-1.1,2-1.5c5.3-3.6,8.9-3,12.8,2.1c2.6,3.4,4.3,7.3,6,11.1
		c4.2,9.6,7.8,19.5,12.3,29c8.1,16.9,19,31.3,36.5,39.9c12.1,5.9,24.6,7.6,37.9,5.6c1.7-0.3,2.2-1.1,2.3-2.7c0-1.8-0.7-2.7-2.6-2.7
		c-4.7-0.2-9.4,0-14.2-0.6c-19.6-2.4-34.4-12.4-45.3-28.3c-7.1-10.3-11.7-21.9-16.4-33.4c-1.7-4-3.2-8.1-5-12
		c-3.3-7.4-7.5-14-15.3-17.6c-0.2-0.3-0.2-0.7,0-1c45.1,0,90.3,0,135.4-0.1c2.5,0,3,0.5,3,3c-0.1,55.1-0.1,110.1-0.1,165.2
		C451.9,337.9,451.9,338.4,452.5,338.9z"/>
	<path class="st1" d="M314.1,169.4c-0.1,0.2-0.1,0.5,0.1,0.7c-2,1.5-4,1.6-6-0.1c0-0.2,0.1-0.4,0.1-0.6
		C310.2,169.4,312.2,169.4,314.1,169.4z"/>
	<path class="st2" d="M452.5,338.9c-0.7-0.2-1.9,0.4-1.8-0.9c0.1-0.7,1.1-0.5,1.8-0.6C452.5,337.9,452.5,338.4,452.5,338.9z"/>
	<path class="st3" d="M199.2,278.1c2.2-5.2,4.6-10,8.7-13.7c4.4-3.9,9.7-4,14.1-0.1c2,1.8,3.7,3.8,5.4,5.8c1.4,1.7,3,3.2,4.9,4.2
		c3.8,1.9,6.6,1.3,9.2-2.1c1-1.3,1.9-2.8,3-4.1c4.5-5.9,10.5-7,17-3.4c4.8,2.7,9,6.2,13.3,9.5c18.3,14.4,38,8.5,54-4.6
		c3.2-2.7,5.6-6.3,9.7-8c7.3-3,14.1-1.5,20.5,2.1c6.4,3.6,12.6,7.7,19,11.4c14.7,8.5,29.4,7.2,44.2,0.2c5.9-2.8,11.5-6.2,16.8-10.1
		c2.8-2.1,3.2,0.9,4.2,2.1c0.8,0.9,2.8,2,0.5,3.7c-10.8,7.6-22.1,14-35.2,16.4c-13,2.4-25-0.4-36.2-7.1c-5.3-3.2-10.5-6.5-15.8-9.7
		c-3.2-1.9-6.7-3.4-10.6-3.3c-3.9,0.1-6.7,2.2-9.3,4.9c-10.6,11-23.8,17.1-39,17.8c-9.6,0.4-18.2-3.5-25.9-9.1
		c-4.2-3.1-8.3-6.3-12.6-9.2c-4.4-2.9-6.3-2.3-9.4,1.9c-0.2,0.3-0.4,0.6-0.6,0.9c-7.4,10.5-16.9,11.2-25.7,1.8
		c-1.7-1.8-3.3-3.8-5-5.7c-2.2-2.5-4.3-2.3-6.4,0.1c-0.5,0.5-1.2,1-1.4,1.7C208.6,277.5,204.6,278.9,199.2,278.1z"/>
	<path class="st4" d="M308.2,170c2,0,4,0,6,0.1c4.9,1.2,8.2,4.4,11,8.4c4.5,6.4,7.1,13.6,10,20.8c4.3,10.5,8.5,21,14.4,30.7
		c13.9,22.6,34.5,32.5,60.8,31.6c1.1,0,2.7-0.9,3,0.9c0.4,1.9,0.3,3.8,0.2,5.7c0,0.2-1,0.4-1.6,0.5c-21.8,3.1-40.8-2.7-56.8-17.7
		c-10.2-9.5-16.7-21.4-22.3-34c-4.2-9.5-7.4-19.4-12.2-28.5c-7.2-13.8-11.2-12-20.2-3.4c-14,13.4-23.2,30.2-31.6,47.3
		c-0.5,1-1.1,1.9-1.4,3c-0.8,2.7-2,3.2-4.7,1.8c-4.9-2.4-5-2.3-2.5-7.3c8.3-17.3,17.7-34,31-48.2C296.2,176.6,301.1,171.8,308.2,170
		z"/>
	<path class="st5" d="M252.7,243.9c4,0.1,7.5,1.5,10.9,3.1c5.5,2.7,7.4,2.3,11.1-2.6c4.3-5.6,6.8-12.2,9.4-18.6
		c2.6-6.2,4.8-12.6,7.9-18.6c1.2-2.4,2.6-4.6,4.5-6.6c4.7-4.9,11.2-4.7,15.5,0.6c0.6,0.7,1.2,1.5,1.7,2.4c2.4,3.8,2.4,3.8-1.8,5.7
		c-1,0.5-2,0.8-3,1.4c-1.6,1-2.8,1-3.7-1c-0.8-1.9-1.8-1.5-2.7,0c-2.5,4-4.2,8.4-5.9,12.8c-2.8,6.9-5.3,14-8.9,20.6
		c-1.5,2.7-3.1,5.5-5.1,7.9c-6.7,8.6-13.4,10.1-23.3,5.5c-7.7-3.6-8.4-3.5-14,2.7c-1,1.1-1.6,1.1-2.7,0.4c-1-0.7-2.1-1.2-3.1-1.8
		c-4.4-2.6-4.4-2.6-1.2-6.4C242.3,246.9,246.9,244.1,252.7,243.9z"/>
	<path class="st6" d="M229.7,241.6c-9.3,3.7-23.1,0.3-29.7-7.2c-3.3-3.7-2.8-6.4,1.8-8.4c2.1-1,4.3-1.6,6.6-1.7
		c3.4-1,6.8-1,10.3-0.9c6,0.2,11,2.6,15.5,6.4c0.7,0.9,0.9,2.1,1,3.2c-0.8,2.7-1.9,5.3-3.6,7.6C231.1,241.2,230.4,241.4,229.7,241.6
		z"/>
	<path class="st7" d="M184.3,271.4c3.1-0.2,5.7,1.3,8.1,3.3c0.6,0.5,1,1,1.6,1.5c7.9,8,7.9,8,17.4,1.7c1.2-0.8,2.5-1.5,3.7-2.3
		c4-2.5,4-2.5,6.4,1.5c1,1.6,1.2,2.6-0.7,3.7c-3.6,2-6.9,4.4-10.5,6.5c-6.6,3.9-11.8,3.4-17.5-1.8c-0.8-0.7-1.6-1.5-2.3-2.3
		c-5.3-5.7-8.2-6.2-14.1-1.3c-3.7,3.1-4.5-0.5-6.1-1.9c-2.5-2.2,0.5-3.1,1.6-3.9C175.4,273.2,179.4,271.4,184.3,271.4z"/>
	<path class="st8" d="M210.6,222.3c-3.3-3.7-6-7.9-6.4-13c-0.3-3.4,1.2-4.9,4.6-5c4.3-0.2,8.3,0.9,12.1,2.8c3,0.4,5.2,2.3,7.8,3.6
		c4.2,3.4,7.3,7.6,9,12.7c0.1,0.4,0.1,0.7,0.1,1.1c0,1.3,0.1,2.5-0.4,3.7c-0.2,0.3-0.4,0.5-0.8,0.7c-1.4-0.5-1.2-2-1.9-3
		c-1.9-4.2-4.9-7.4-8.6-10.1c-1.8-1.3-3.9-1.9-6.1-2.1c-4-0.2-5.3,1.6-4,5.4c0.5,1.4,1.9,2.6,1.3,4.4
		C214.9,224.3,212.5,224.8,210.6,222.3z"/>
	<path class="st9" d="M279.2,310.6c-0.2-2-1.6-2.5-3.2-2.9c-1.7-0.5-3.5-0.9-5.2-1.5c-2.4-0.9-3.6-2.7-3.4-5.3c0.3-3,3-4.8,7-4.8
		c3.9,0,6.7,2,7.2,4.8c0.1,0.9-0.1,1.4-0.9,1.6c-1,0.2-1.8,0.2-2.3-1.1c-1-2.9-3.5-2.6-5.8-2.2c-1.1,0.2-2,1.1-2,2.3
		c0,1,0.7,1.7,1.8,2c1.9,0.5,3.8,0.9,5.6,1.5c2.5,0.8,4.1,2.3,4.1,5.2c0,3-1.6,4.7-4.3,5.5c-4.4,1.4-9.1-0.1-10.7-3.6
		c-0.4-0.9-1.2-2.2,0-2.8c1-0.5,2.1-0.4,2.8,1.2c1.6,3.3,4.6,3,7.5,2.2C278.7,312.3,279.5,311.9,279.2,310.6z"/>
	<path class="st10" d="M421.3,300.6c4.8,0,6.3,1.5,6.4,5.6c0.1,2.5,0,5.1,0.4,7.5c0.3,1.5-0.5,1.6-1.2,1.3c-2.1-0.8-3.8,0.1-5.8,0.4
		c-2.5,0.4-5-0.1-5.7-3c-0.7-2.9,0.8-4.8,3.8-5.4c0.7-0.1,1.4-0.2,2.1-0.5c0.9-0.3,2.3,0.4,2.8-1.1c0.2-0.7,0-1.6-0.8-1.8
		c-1.3-0.4-2.8-0.7-3.8,0.3c-1,1.1-1.9,2.2-3.6,1.6c-0.6-0.2-0.5-0.7-0.3-1.1c0.6-1.5,1.4-2.8,3.1-3.2
		C419.8,300.9,420.9,300.7,421.3,300.6z"/>
	<path class="st11" d="M345.6,309.1c1,4,3.8,5.2,6,2.5c1.3-1.5,2.3-1.1,3.7-0.8c-1.6,4.2-4.8,5.9-8.7,4.5c-3.6-1.3-5.3-5.5-4-10
		c1-3.3,4.4-5.1,8-4.3c3.3,0.7,4.3,3.1,4.9,6c0.3,1.5-0.3,2.2-1.9,2.1C351,309.1,348.4,309.1,345.6,309.1z"/>
	<path class="st12" d="M248,309.8c1.4,4.2,3.7,4.9,6.2,2.1c1-1.2,2.1-1.6,3-0.8c1.3,1.1,0,2.1-0.7,2.9c-1.9,2-4.2,2.6-6.9,1.9
		c-2.6-0.7-4.1-2.3-4.7-5c-1.1-5.7,1.7-9.8,6.6-9.7c3.7,0.1,6.6,3.2,6.5,6.8c0,1.6-0.9,1.7-2.1,1.7c-1.3,0-2.7,0-4,0
		C250.6,309.8,249.4,309.8,248,309.8z"/>
	<path class="st13" d="M301.8,317.2c-1.7,3.9-7.6,5.3-10.4,2.4c-0.9-0.9-1.8-2.2-1-3.2c1-1.2,2.1-0.1,3,0.6c3,2.3,4.2,1.9,5.9-2
		c-3.7,0.9-7.1,1-8.9-3c-1.5-3.1-0.8-6.9,1.7-9.6c3.2-1.5,4.4-1.4,5.8,0.1c-0.5,0.5-1.2,0.7-1.9,0.9c-1.5,0.3-2.1,1.2-2.1,2.6
		c0.3,2-0.9,5.1,2.2,5.1c3.1,0,2.3-3,2.1-5c-0.1-1.1-0.1-2.1,0.6-3.1c0.8-0.6,1.3-2,2.6-1.4c1,0.5,0.6,1.7,0.6,2.6
		C301.9,308.7,302.5,313,301.8,317.2z"/>
	<path class="st10" d="M212.1,310.3c0,1-0.2,2,0,2.9c0.7,3.1-0.3,3.8-2.9,2.1c-1.2-0.8-1.7,0.4-2.5,0.7c-3.3,1-6.2,0-7-2.5
		c-0.9-3,0.8-5.2,4.6-5.8c0.5-0.1,1,0,1.4-0.2c0.9-0.6,2.6,0.3,2.9-1.4c0.1-0.6-0.3-1.2-0.9-1.5c-1.3-0.7-2.5-0.7-3.8,0
		c-0.1,0.1-0.2,0.1-0.3,0.2c-0.8,1.1-1.5,2.2-3.2,1.6c-0.5-0.2-0.8-0.5-0.6-1c0.5-1.6,1.5-2.7,3-3.3
		C209.1,299.7,212.1,302.4,212.1,310.3z"/>
	<path class="st11" d="M365.2,310.6c-1.7-0.6-3.4-1.1-5.1-1.7c-1.8-0.7-3.1-1.9-3-4c0.2-2.2,1.6-3.4,3.7-3.8
		c2.4-0.4,4.8-0.4,6.5,1.8c0.5,0.7,1,1.6,0.3,2.2c-0.7,0.6-1.9,0.8-2.6-0.1c-0.7-0.8-1.3-1.8-2.6-1.7c-1,0-2.1,0.2-2.3,1.3
		c-0.2,1.1,1,1.2,1.7,1.5c1.5,0.5,3,0.8,4.4,1.4c2.2,1,3,2.8,1.9,5.1c-1,2.2-3,3-5.3,3c-2.3,0-4.4-0.5-5.6-2.6
		c-0.4-0.7-1.3-1.7,0-2.4c0.7-0.4,2-0.8,2.5,0.5c1.1,2.5,3.1,1.7,5,1.5C365.9,312.1,365.8,311.4,365.2,310.6z"/>
	<path class="st14" d="M386.4,304.8c-1.8-2.2-3.7-2.2-5.4-0.1c-1,1.3-2.2,1.4-3.1,0.6c-0.9-0.8,0.1-2.1,0.8-2.7
		c2.3-2.2,5.1-2.3,8.1-1.5c2.6,0.8,3,2.9,2.9,5.1c0,1.6,0,3.1,0,4.7c-0.1,2.1,2,6.5-3.4,3.4c-0.4-0.2-1.5,0.6-2.2,0.9
		c-2.3,0.8-4.5,0.8-6-1.5c-0.6-1.9-0.3-3.7,0.7-5.4c0.2-0.6,0.7-0.7,1.3-0.7c1.2-0.7,2.8,0.4,3.8-0.8l-0.1,0
		C384.6,306.1,387.4,307.7,386.4,304.8z"/>
	<path class="st15" d="M448.2,296.2c0.7,1.9-0.7,4.2,2.1,5c0.7,0.2,0.6,1.2,0.1,1.8c-2.7,3.3-2.7,6.2,0.1,9.5
		c0.3,0.4,0.5,1.1,0.5,1.6c0,1-1,1-1.6,1c-2.6,0.2-3.9-1.1-4-3.6c-0.1-2.4,0.9-5.7-0.3-7c-2.5-2.8,0.4-4.5,0.4-6.6
		C445.5,297,446.9,296.5,448.2,296.2z"/>
	<path class="st16" d="M322.6,296.7c1,1.9-0.8,4.5,2.5,4.8c0.8,0.1,0.6,1.3-0.1,2c-2.8,2.6-2.7,6.7,0.2,9.4c0.6,0.6,0.6,1.3,0.5,2
		c-0.2,0.8-0.8,0.7-1.4,0.8c-2.8,0.3-4.1-1.1-4.2-3.7c-0.1-2.5,0.9-5.8-0.4-7.4c-2.6-3.3,1.3-4.6,1.3-6.9
		C321,297.3,322,297,322.6,296.7z"/>
	<path class="st17" d="M373.7,296.6c0.8,1.7-0.9,4.5,2.5,4.9c0.7,0.1,0.6,1.3-0.4,1.9c-2.2,1.5-2.4,7.8-0.2,9.2
		c0.9,0.6,1.3,1.1,1.1,1.9c-0.3,1.3-1.5,1.2-2.4,1c-1.9-0.2-2.9-1.4-3.2-3.3c-0.5-3.2,1.3-6.9-1.6-9.7
		C371.3,300.8,370.2,297.4,373.7,296.6z"/>
	<path class="st14" d="M217.8,297.2c0.8,1.8-1,4.6,2.4,5c0.6,0.1,0.6,1.2,0,1.8c-3,3-3,6.5,0,9.6c0.4,0.4,0.5,1.1,0.5,1.6
		c0,0.7-0.7,1-1.3,1c-2.4,0.2-4-0.7-4.3-3.2c-0.4-3.2,1.1-6.8-1.6-9.7C215.4,301.6,214.3,297.8,217.8,297.2z"/>
	<path class="st18" d="M306.8,296.2c0.2,0,0.5,0,0.7,0c1.1,1.8-0.4,4,0.9,5.7c0,0,0.2,0,0.3,0c0.1,0,0.2-0.1,0.3-0.2
		c3-1.2,5.8-1.7,7.4,2.1c0.6,3.1,0.1,6.2,0.3,9.3c0,0.8,0.2,2-1,2c-1.4,0-1.1-1.3-1.1-2.2c-0.1-2.2,0.2-4.3-0.2-6.5
		c-0.4-2.1-1.2-3.8-3.9-2.6c-1.4,0.2-2.1,1-2.3,2.4c-0.8,3,0.3,6.2-0.6,9.2c-0.8,0.1-1.7,0.7-2.1-0.6c1-4.9-0.5-9.7,0-14.6
		C305.5,298.8,305,297.1,306.8,296.2z"/>
	<path class="st19" d="M186,302.1c1.8-0.2,3.7,0.3,5.5-0.2c2.6-0.7,4.1,1,5.3,3c0.6,3.6,0.6,7.2,0,10.7l0,0c-2.5,0.7-2-1.2-2.2-2.5
		c-0.4-2.8,0.9-5.7-0.9-8.3l0.1,0.1c-1.3-1.8-2.8-1.3-4.3-0.3c-1.5,2.2-0.5,4.6-0.8,6.9c-0.2,1.4,0.6,2.8-0.6,4.1
		c-2.5,0.7-2.2-1.2-2.2-2.5C185.9,309.5,185.9,305.8,186,302.1z"/>
	<path class="st20" d="M400.8,314.3c-4.6,2.6-7.7,1.1-8.2-4c-0.2-2.5-0.2-5-0.3-7.5c0-1.2,0.4-1.7,1.7-1.7c1.3,0,1.6,0.6,1.6,1.8
		c0,2.3,0,4.6,0,6.8c0,2,0.9,3.2,3,3.2C401,312.7,401,312.7,400.8,314.3z"/>
	<path class="st21" d="M236.3,199.1c2.8,3.4,5.2,7,5.9,11.5c-0.3,0.2-0.6,0.4-0.9,0.4c-0.9-0.2-1.5-0.9-1.8-1.7
		c-1.6-3.8-4.5-6.5-7.5-9.1c-1.4-1.8-3.2-3.3-4.7-5c-0.6-0.7-1.6-1.6-1.1-2.5c0.6-1,1.9-0.7,2.9-0.2c0.5,0.3,1,0.5,1.5,0.8
		c1,0.4,1.6,1.3,2.3,2.1c0.5,0.5,0.9,0.9,1.4,1.4C234.8,197.5,235.7,198.2,236.3,199.1z"/>
	<path class="st22" d="M400.8,314.3c0.2-1.9-1.9-0.4-2.2-1.5c1.8-0.9,2.6-2.3,2.5-4.4c-0.1-1.9,0-3.8,0-5.8c0-1,0.3-1.7,1.4-1.6
		c0.8,0,1.8-0.1,1.8,1.1c0,4,0.4,8-0.1,11.9C404,316.2,402,314.8,400.8,314.3z"/>
	<path class="st23" d="M222.5,202.7c-0.2-3.7-0.3-7.3,2.8-10.1c-0.1,3.5,3.3,5.3,4.2,8.3c-0.2,2-0.2,4-0.9,5.9
		c-1.7,1.3-2.5-0.4-3.5-1.2C224.1,204.7,223.3,203.7,222.5,202.7z"/>
	<path class="st24" d="M440.4,301.8c2.7,1.7,1.7,4.5,1.9,6.9c0.1,1.6,0,3.1,0,4.7c0.1,1.3-0.5,1.6-1.7,1.6c-1.3,0-1.3-0.7-1.3-1.6
		c0-2,0-4.1,0-6.1c0.1-2.9-1.2-4.3-4.2-3.8c-0.6,0.4-1.2,0.4-1.5-0.2c-0.3-0.6,0.2-1.1,0.7-1.4C436.4,300.4,438.4,300.7,440.4,301.8
		z"/>
	<path class="st25" d="M440.4,301.8c-2-0.2-4-1.3-5.8,0.4c-1,0.9-0.2,1.1,0.5,1.2c-2.7,2.6-1.1,5.9-1.6,8.8
		c-0.2,1.1,0.9,2.9-1.5,2.8c-2.3-0.1-1.3-1.9-1.4-2.9c-0.2-1.9-0.2-3.8,0-5.7c0.1-1.8-0.7-5.2,0.7-5.1
		C434.3,301.5,437.6,298.7,440.4,301.8z"/>
	<path class="st26" d="M245,222.3c2.4-1.1,4.8-2.3,7.2-3.4c0.6-0.3,1.4-0.5,1.9,0.3c0.5,0.8-0.1,1.3-0.5,1.9c-2.7,3.5-7,4-10.7,5.6
		c-0.5,0.3-0.9,0.4-1.4,0.2c-0.7-2.4,1.4-2.9,2.7-4C244.4,222.7,244.7,222.5,245,222.3z"/>
	<path class="st27" d="M237,302.1c1.5-0.6,3.2,0.1,4.8-0.7c1-0.5,2.7-0.1,2.8,1.3c0.1,1.3-0.6,2.5-2.5,2c-1.7-0.4-2.3,0.8-2.4,2.3
		c-0.8,2.8,0.3,5.8-0.6,8.6c-0.7,0.2-1.5,0.3-2.1-0.1C236.9,311,236.9,306.6,237,302.1z"/>
	<path class="st28" d="M411,304.2c-1.5,2.8-0.6,5.8-0.8,8.8c-0.2,2.5-0.2,2.5-2.8,1.2c0.7-2.6,0.4-5.3,0.3-7.9
		c-0.2-3.1,0.3-5.3,4.1-5.1c1.5-0.1,3.2-0.4,2.8,2.1C413.5,304.3,412,303.1,411,304.2z"/>
	<path class="st29" d="M231.1,240.3c1.4-2.3,1.8-5.1,3.7-7.2c0.2-1.3,0.5-2.6,2.3-2.1c0.2,4.9-1.5,9-5.1,12.4
		C229.7,242.9,230.8,241.5,231.1,240.3z"/>
	<path class="st30" d="M222.5,202.7c2.6,0.5,3.5,3.2,5.6,4.3c1.4,1.3,1.3,2.8,0.4,4.4c-2.5-1.4-5-2.9-7.5-4.3
		C223.9,206.5,221.6,204,222.5,202.7z"/>
	<path class="st31" d="M229,200.7c-0.7-0.9-1.4-1.9-2.3-2.7c-1.9-1.5-2.5-3.2-1.4-5.5c1.2-1,2.4-1.1,3.6,0c-0.8,0.1-1.7-0.3-2.4,0.5
		c1.6,2.7,4.7,4.1,6,7C231.4,200.8,230.3,201.3,229,200.7z"/>
	<path class="st32" d="M285.1,315c-0.2-3.8-0.4-7.7-0.5-11.5c0-1.1,0-2.2,1.6-2.2c1.6,0,1.8,0.9,1.7,2.1c-0.4,4.1,1,8.2-0.7,12.2
		c-1.5-2.6-0.2-5.5-0.7-7.8c0,1.5,0.1,3.4,0,5.2C286.4,313.9,286.5,315,285.1,315z"/>
	<path class="st33" d="M228.7,313.4c2.9-2.2,1.6-5.5,2-8.3c0.2-1.2-1-3.2,1.5-3.3c2.5-0.1,1.6,2,1.7,3.2c0.2,3,0.1,6,0.1,9
		c0,1,0.1,2.1-1.4,1.7c-0.7-3.1,0.4-6.2,0-8.8c-0.2,1.5,0.3,3.7-0.9,5.7C230.9,313.6,230.1,314.4,228.7,313.4z"/>
	<path class="st34" d="M223.8,315c-3.5-3.7-1.2-8.2-1.7-12.4c-0.1-0.9,1-0.9,1.7-0.9c1.2,0,1.4,0.7,1.4,1.6c0,3.1,0.1,6.2,0.1,9.4
		c-1.7,0.1-1.4-1.3-1.5-2.2c-0.1-1.3-0.1-2.6,0-3.7C223.5,309.4,224.2,312.2,223.8,315z"/>
	<path class="st35" d="M223.8,315c-1.1-4-0.6-7.9-0.2-11.9c2.1,3-0.3,6.7,1.8,9.7c0.2,0.2,0.4,0.4,0.7,0.7c0.8,0.8,1.8,0.2,2.7,0.4
		c1.7,0.4,1.1,1.1,0.3,1.8l0,0c-1.3,0.5-2.5,0.5-3.8,0C224.6,315.8,224,315.7,223.8,315z"/>
	<path class="st14" d="M301.8,317.2c0-4.9,0-9.8,0-14.8c-1.8-0.2-1.6,2.1-3.1,1.7c-0.5,0.4-1,0.4-1.5,0c-0.3-0.5-0.3-1,0-1.5
		c-1.6-1.9-3.4,0-5.1-0.1c1.6-2.2,3.9-1.5,6-1.2c4.3,0.7,4.4,0.7,4.2,5.5C302.3,310.3,303.1,313.8,301.8,317.2z"/>
	<path class="st36" d="M337.3,307c0,2.3,0.1,4.6,0.1,6.9c0,0.9-0.2,1.6-1.3,1.7c-1,0.1-1.7-0.2-1.7-1.3c0.2-4.3-1.1-8.6,0.2-12.8
		c1.7,0.7,1.6,2.2,1.5,3.6c-0.1,2-0.2,4-0.1,5.9C336.5,309.8,335,307.8,337.3,307z"/>
	<path class="st20" d="M310.5,303.9c0.3-1.4,1.1-1.4,2.1-0.9c1.5,0.7,2.1,1.9,2.2,3.4c0.2,2.7-0.4,5.4,0.4,8c0.4,0,0.8,0,1.2,0
		c0-3.5,0-7.1,0-10.6c1.2,3.3,0.3,6.8,0.6,10.2c0.1,1-0.5,1.5-1.5,1.5c-1.2,0-1.4-0.6-1.4-1.6c0-2.3,0-4.5-0.1-6.8
		C313.9,305,313.1,303.5,310.5,303.9z"/>
	<path class="st20" d="M306.8,296.2c-1.6,4.6-0.3,9.3-0.7,13.9c-0.2,1.6,0.6,3.4-0.7,4.8c-0.1-5.4-0.3-10.8-0.4-16.2
		C305,297.6,304.5,295.9,306.8,296.2z"/>
	<path class="st37" d="M337.3,307c-1.5,2.3,0.2,5.1-1.4,8.1c-1.6-4.8,0.4-9.4-1.3-13.6c0.8-0.2,1.6-0.6,2.1,0.4
		c0.9,0.9,1.2,1.9,0.8,3.1C336.8,305.6,337.2,306.3,337.3,307z"/>
	<path class="st38" d="M186,302.1c1.4,3.4,0.3,7,0.6,10.5c0.1,1.2-0.3,2.7,1.5,3.1c-1.2,0.6-2.6,0.8-2.6-0.9
		C185.7,310.6,184.9,306.3,186,302.1z"/>
	<path class="st39" d="M285.1,315c1.4-2.5,0.3-5.2,0.6-7.7c0.2-1.4,0-2.8,0-4.1c0.5,0,1,0,1.4,0c0,4.2,0,8.3,0,12.5
		C286.4,315.5,285.4,316.3,285.1,315z"/>
	<path class="st35" d="M231.1,312.1c1.4-2.8,0.1-6.1,1.6-8.9c0.3,4.2,1.3,8.3-0.1,12.5c-0.5,0.2-0.7-0.1-0.8-0.5
		C230.9,314.2,231.5,313,231.1,312.1z"/>
	<path class="st40" d="M237,302.1c1.1,4.5,1.1,8.9,0,13.4C236.2,311,236.2,306.6,237,302.1z"/>
	<path class="st34" d="M193.8,304.9c2.8,1,1.2,3.4,1.7,5.2c0.5,1.9-1.4,4.3,1.5,5.6c-1.9,0.9-2.6,0.2-2.6-1.8
		C194.2,310.9,194.7,307.9,193.8,304.9z"/>
	<path class="st41" d="M337.5,304.9c-0.5-1-0.9-2-0.8-3.1c0.3-0.2,0.6-0.4,0.9-0.5c1.6-0.3,3.9-1.2,4.4,0.7c0.7,2.4-1.8,2-3.3,2.2
		C338.3,304.4,337.9,304.7,337.5,304.9z"/>
	<path class="st42" d="M190.4,254.7c0.7-0.9,1.4-1.8,2.1-2.7c0.8,0.1,1.1,0.7,1.3,1.4c0,0.2,0.1,0.5,0.1,0.7
		c0.5,0.6,0.2,1.2,0.1,1.7c-0.1,0.4-0.4,0.8-0.8,1.1c-0.9,1-1.9,1.1-2.9,0.1C189.7,256.3,189.7,255.5,190.4,254.7z"/>
	<path class="st43" d="M411.7,301.2c-4.8,0.8-3.5,4.5-3.7,7.5c-0.1,1.8,0.7,3.8-0.6,5.5c-0.1-2.9,0.1-5.8-0.2-8.6
		C406.7,302,407.8,300.3,411.7,301.2z"/>
	<path class="st44" d="M287.8,298.1c0.2,1.2-0.4,1.6-1.6,1.6c-1.3,0-1.7-0.6-1.6-1.8c0-1.1,0.3-1.8,1.7-1.8
		C287.7,296.2,287.9,297,287.8,298.1z"/>
	<path class="st45" d="M218.7,254.8c2.3,1.2,0.4,2.9-0.3,2.6c-1.7-0.5-3.3,0.8-4.8-0.3c-0.5-1.7,1-1.6,1.9-2
		c0.5-0.2,1.2,0.2,1.5-0.4l0.2,0.1C217.7,254.4,218.2,254.4,218.7,254.8z"/>
	<path class="st46" d="M171.9,257.7c0-0.2,0.1-0.5,0.1-0.7c0-1.2-0.1-2.6,1.3-2.9c1.8-0.4,0.1,2.1,1.6,2.1c0.5-0.4,1-0.4,1.5,0
		c0.3,0.5,1.1,1.7,0.1,1.3c-2.1-0.9-1.8,0.8-2.4,1.5C173,259.3,172.5,258.5,171.9,257.7z"/>
	<path class="st47" d="M245,222.3c0,0.3-0.1,0.5-0.2,0.7c-1.1,0.5-2.1,0.9-3.3,0.3c-0.9-1.2-0.3-2.4,0.1-3.6c0.9-0.9,0.9-2.5,2.4-3
		C244.8,218.4,243.3,220.7,245,222.3z"/>
	<path class="st48" d="M210.6,222.3c2.1,1.3,4.3,2.3,6.8,0.7c1.2-0.3,2.1,0.1,2.3,1.4c-3.8,0-7.5,0-11.3,0
		C208.9,223.4,211.3,224.6,210.6,222.3z"/>
	<path class="st49" d="M231.1,240.3c0.4,1-0.7,2.4,0.9,3c-0.2,1.4-0.5,2.8-2.2,3.3c-0.7-1.7,0.1-3.4-0.1-5
		C230.2,241.2,230.6,240.7,231.1,240.3z"/>
	<path class="st50" d="M210,256.4c-0.2-0.1-0.5-0.3-0.7-0.4c-0.8-0.1-1.4-0.4-1.6-1.2c0-0.2,0-0.5,0.2-0.6c0.2-0.2,0.5-0.4,0.8-0.6
		c1.8-0.3,3.9-1.2,3.8,2c-0.1,0.1-0.1,0.3-0.2,0.4C211.5,256.7,210.7,256.6,210,256.4z"/>
	<path class="st51" d="M207.6,254.8c0.7,0.2,1.3,0.5,1.6,1.2c-1.1,1.8-2.6,1.9-4.3,1.1c-0.2-0.1-0.2-0.3-0.2-0.4
		c0.1-0.2,0.1-0.2,0.2-0.2C205.4,255.3,206.2,254.4,207.6,254.8z"/>
	<path class="st52" d="M243.9,216.6c-0.8,0.8,0.2,2.6-1.7,2.8c-1.4-1.1-1.1-2.7-0.9-4.2c0.4-1.2,0.4-2.5,1.6-3.4
		C243.9,213.3,243.5,215,243.9,216.6z"/>
	<path class="st53" d="M190.4,254.7c0,0.8,0,1.6,0,2.4c-1,1.3-2,0.4-2.9-0.1c-0.2-0.2-0.3-0.3-0.2-0.5c0.1-0.2,0.2-0.3,0.2-0.3
		C188.1,255,188.4,253.2,190.4,254.7z"/>
	<path class="st54" d="M241.2,226.5c0.6,0.1,1.1,0.1,1.7,0.2c-1.4,1.7-3.5,2.4-5.2,3.7c-0.4-0.4-0.5-0.8-0.4-1.4
		c0.2-0.5,0.4-1,0.7-1.4C238.9,226.9,239.7,225.7,241.2,226.5z"/>
	<path class="st34" d="M231.1,312.1c1,0.9,0.6,2,0.6,3.1c-0.9,0.2-1.9,0.4-2.8,0.6c0.2-0.7,0.6-1.4-0.7-1.5c-0.8,0-1.7,0.2-2.3-0.8
		c0.9,0,1.8,0,2.7-0.1C229.9,313.6,230.6,313.1,231.1,312.1z"/>
	<path class="st34" d="M196.9,315.7c0-3.6,0-7.2,0-10.7C198,308.5,198,312.1,196.9,315.7z"/>
	<path class="st55" d="M216,255.3c-0.5,1-2.3,0.4-2.4,1.8c-0.2-0.1-0.5-0.2-0.7-0.3c-0.6-0.2-0.9-0.5-0.8-1.2l0.2-0.1
		c1.7-0.3,1.8-2.5,3.5-2.8C216.4,253.5,216.2,254.4,216,255.3z"/>
	<path class="st56" d="M237.6,228.7c0,0.5,0,1.1,0.1,1.6c0,0.4-0.2,0.6-0.6,0.6c-1.4,0-1.5,1.5-2.3,2.1c-1-0.7-0.6-1.8-0.8-2.7
		c0.1-0.3,0.4-0.4,0.7-0.5c0.8-0.3,1.6-0.7,2.3-1.1l0.3,0C237.3,228.8,237.5,228.7,237.6,228.7z"/>
	<path class="st57" d="M218.7,254.8c-0.5,0-1,0-1.4,0c-0.5-2.7,2.3-2,3.2-3.3C221.7,253.8,219.6,253.9,218.7,254.8z"/>
	<path class="st58" d="M171.9,257.7c1.1-0.1,1.6,0.8,2.2,1.4c-0.4,1-1.2,1.9-2.2,1.3C170.8,259.8,171.1,258.6,171.9,257.7z"/>
	<path class="st20" d="M307.6,315.5c0.3-3.1-0.7-6.2,0.6-9.2C307.9,309.4,309.1,312.5,307.6,315.5z"/>
	<path class="st40" d="M239.1,315.6c0.3-2.9-0.7-5.8,0.6-8.6C239.5,309.9,240.6,312.8,239.1,315.6z"/>
	<path d="M176.4,256.3c-0.5,0-1,0-1.5,0c1-1.8,2.2-3.3,4.4-3.5c1,1.7-0.7,1.6-1.4,2.1C177.4,255.3,176.9,255.8,176.4,256.3z"/>
	<path class="st59" d="M193.2,255.5c0.3-0.5,0.5-0.9,0.8-1.4c1,0.4,2.6-2.1,3,0.7c-0.1,0.5-0.1,0.9-0.4,1.3
		c-0.1,0.1-0.2,0.2-0.3,0.3c-0.2,0-0.3,0.1-0.5,0.1C194.7,256.6,193.9,256.3,193.2,255.5z"/>
	<path class="st46" d="M182.4,256.3c-0.9,2.6-2.4,0.2-3.7,0.5c1.5-0.3,1.8-2.2,3.4-2.3C182.5,255,182.5,255.6,182.4,256.3z"/>
	<path class="st60" d="M204.9,256.4c-0.1,0.2-0.1,0.5,0,0.7c-0.9,2.9-1.5-0.8-2.3-0.1l0.1,0c-0.3-0.9-0.8-2,0.5-2.4
		C204.6,254.2,203.8,256.4,204.9,256.4z"/>
	<path class="st61" d="M242.9,211.8c-0.3,1.1,0.2,2.3-0.8,3.2c-1.6-1.1-2-2.5-1-4.3c0.3,0,0.7-0.1,1-0.1
		C242.7,210.8,242.9,211.3,242.9,211.8z"/>
	<path class="st20" d="M309,301.8c-1.1,1.2-1.3,0.2-1.4-0.7c-0.1-1.6,0-3.2,0-4.9C309.4,297.8,307.1,300.3,309,301.8z"/>
	<path class="st62" d="M386.4,304.8c1.7,0.7,1.7,1.5,0,2.1c-0.7,0.2-1.6,0-2.5,0C384.6,306,386.6,306.7,386.4,304.8z"/>
	<path class="st63" d="M182.4,256.3c-1-0.5-0.8-1.1-0.3-1.8c0.5-0.2,1.1-0.3,1.6-0.5c0.8,0.8,0.7,1.6,0.1,2.4
		C183.2,257.8,182.9,256.1,182.4,256.3z"/>
	<path class="st57" d="M183.8,256.4c0-0.8-0.1-1.6-0.1-2.4c2.5-2.5,1.1,1.6,2.3,1.4c0.3,0.8,0,1.2-0.9,1
		C184.6,256.4,184.2,256.4,183.8,256.4z"/>
	<path class="st64" d="M193.2,255.5c1,0,2,0.2,2.9,0.8c0.4,0.8,0,1.2-0.7,1.6c-0.7-0.3-1.4-0.6-2.1-0.9
		C193.2,256.5,193.2,256,193.2,255.5z"/>
	<path class="st65" d="M195.4,257.8c0.2-0.5,0.5-1,0.7-1.6c0,0,0,0,0,0c0.2-0.2,0.4-0.4,0.7-0.4c0.3,0,0.5,0.2,0.7,0.4
		c0.5,1.6-0.5,2.5-1.7,2.9C194.9,259.3,195.4,258.3,195.4,257.8z"/>
	<path class="st66" d="M185.1,256.4c0.3-0.3,0.6-0.7,0.9-1c1.5-1.5,0.6,1.2,1.5,0.8c0,0.3,0,0.5,0,0.8
		C186.5,257.4,185.1,259.5,185.1,256.4z"/>
	<path class="st67" d="M193.8,253.4c-0.4-0.5-0.9-0.9-1.3-1.4c0.3-1,1.4-0.9,2-1.5C195.2,251.7,194.1,252.4,193.8,253.4z"/>
	<path class="st34" d="M189.6,304.7c1.5-1.8,3-2.3,4.3,0.3C192.5,304.1,191.1,304.3,189.6,304.7z"/>
	<path class="st68" d="M206.2,250.7c0.3,1.2-0.4,1.9-1.2,2.5c-0.8-0.1-0.8-0.6-0.5-1.1C204.8,251.5,204.8,250.4,206.2,250.7z"/>
	<path class="st69" d="M212.1,255.6c0.3,0.4,0.5,0.8,0.8,1.2c-0.9-0.7-2.4,3-2.9-0.4C210.4,255.4,211.6,256.3,212.1,255.6z"/>
	<path class="st62" d="M378.9,308.3c-0.2,1.8-0.5,3.6-0.7,5.4C376.8,311.7,376.9,309.9,378.9,308.3z"/>
	<path class="st70" d="M178,254.9c0.3-0.8,1.6-1,1.4-2.1c1.5,0.7,0.7,1.6,0.2,2.4C179,256.1,178.5,255.1,178,254.9z"/>
	<path class="st71" d="M279.2,310.6c1.1,1.9,0,2.1-1.6,2C278.2,311.9,278.7,311.3,279.2,310.6z"/>
	<path class="st72" d="M202.6,257c0.2,1.2,0.4,2.3,0.5,3.5C201.6,259.4,201.5,258.3,202.6,257C202.7,257,202.6,257,202.6,257z"/>
	<path class="st31" d="M232.7,195.4c-1.1-0.3-1.7-1.1-2.3-2.1C231.8,193.3,232.4,194.2,232.7,195.4z"/>
	<path class="st62" d="M384,306.8c-1,1.5-2.5,0.7-3.8,0.8C381.3,306.6,382.7,306.9,384,306.8z"/>
	<path class="st43" d="M411,304.2c0.9-1.4,2.3-0.6,3.5-0.9C413.7,304.9,412.1,303.5,411,304.2z"/>
	<path class="st73" d="M216,255.3c-0.1-0.9-0.1-1.7-0.2-2.6c1.1,0.3,0.8,1.4,1.3,2C217.1,255.7,216.6,255.5,216,255.3z"/>
	<path class="st74" d="M365.2,310.6c1.6,1,1.6,1-0.3,2.1C365,312,365.1,311.3,365.2,310.6z"/>
	<path class="st31" d="M236.3,199.1c-1-0.5-1.8-1.2-2.2-2.3C235.3,197,236.2,197.7,236.3,199.1z"/>
	<path class="st34" d="M225.2,315.7c1.3,0,2.5,0,3.8,0C227.7,316.7,226.4,316.6,225.2,315.7z"/>
	<path class="st75" d="M423.4,339.6c0,0-0.1,0.6-0.7,0.3c-0.3-0.2-0.6-0.7-0.7-1.1c-0.1-0.6,0.4-0.8,0.9-0.8
		C423.4,338.1,423.5,338.6,423.4,339.6z"/>
	<path d="M197.5,256.3c-0.2,0-0.4,0-0.6,0c-0.2-0.1-0.4-0.3-0.5-0.6c0.2-0.3,0.4-0.6,0.6-0.8C197.8,255,197.6,255.7,197.5,256.3z"/>
	<path class="st67" d="M208.5,253.5c-0.3,0.2-0.5,0.4-0.8,0.6C207.7,253.5,208.1,253.4,208.5,253.5z"/>
	<path class="st76" d="M234.6,230.1c-0.2,0.1-0.5,0.2-0.7,0.2c-4.5-2.7-8.8-5.6-14.2-6c-0.8-0.5-1.5-0.9-2.3-1.4
		c-1.8-2.7-4.4-5.8-1.9-8.8c2.4-2.8,6.1-1.4,9.1-0.1c5.4,2.3,8.9,6.5,11,11.8C235.7,227.4,236.7,229.1,234.6,230.1z"/>
	<path class="st77" d="M241.1,210.7c0.3,1.4,0.7,2.8,1,4.3c0,1.4,0.1,2.9,0.1,4.3c-0.2,1.2-0.5,2.4-0.7,3.6
		c-1.2,2.8-2.8,2.4-4.6,0.6c-1.7-4.8-5-8.5-8.5-12.2c-0.1-1.5-0.3-2.9-0.4-4.4c0.2-2.1,0.1-4.3,0.9-6.4c1.1-0.5,2.2-1.1,3.5-0.7
		C236.6,202.5,239.1,206.4,241.1,210.7z"/>
	<path class="st78" d="M236.9,223.6c1.6,0.4,3.2,1.1,4.6-0.6c1.1,0,2.2,0,3.2,0c-1,1.3-2.9,1.8-3.6,3.5c-1.2,0.1-1.8,1.1-2.7,1.6
		c-1.4-0.9-0.7-2.5-1.5-3.7C237,224.1,236.9,223.9,236.9,223.6z"/>
	<path class="st79" d="M234.6,230.1c1.2-1.2,1.1-2.7,1-4.2c0.4,1,0.9,1.9,1.3,2.9C236.4,229.5,236.2,230.9,234.6,230.1z"/>
	<path class="st80" d="M237,224.4c1,1,1.2,2.4,1.5,3.7c-0.3,0.2-0.5,0.4-0.8,0.6c-0.1,0-0.3,0-0.4,0
		C237.1,227.3,237,225.9,237,224.4z"/>
	<path class="st81" d="M424.4,310c-0.5,1.7-1.6,2.7-3.5,2.9c-1.2,0.1-2.5-0.3-2.4-1.5c0.2-2.5,2.4-2.1,4.1-2.3
		C423.3,309,424.4,308.4,424.4,310z"/>
	<path class="st82" d="M345.5,306.5c0.9-2.4,2.2-3.4,4-3c1.1,0.2,2.5,0.9,2.3,2.3c-0.2,1.3-1.6,0.6-2.4,0.7
		C348.3,306.6,347.1,306.5,345.5,306.5z"/>
	<path class="st83" d="M247.8,307c1.4-2.9,3.1-3.8,5.6-2.3c0.6,0.4,1.2,1,0.9,1.8c-0.3,0.7-1,0.5-1.5,0.5
		C251.2,307,249.7,307,247.8,307z"/>
	<path class="st84" d="M297.4,304c0.4,0,0.9,0.1,1.3,0.1c0.1,1.8,1.2,3.4,0.8,5.3c-0.4,1.8-1.1,3.5-3.4,3.4
		c-2.3-0.1-3.1-1.6-3.1-3.6c0-1.2,0.1-2.4,0.1-3.6c0.6-0.9,1.2-1.8,2.3-2.1C296.1,303.4,296.8,303.5,297.4,304z"/>
	<path class="st14" d="M295.1,303.9c-0.7,0.6-1.4,1.1-2.1,1.7c0-1.5,0.9-2.4,2.3-2.9C295.6,303.2,295.6,303.6,295.1,303.9z"/>
	<path class="st85" d="M295.1,303.9c0.1-0.4,0.1-0.8,0.2-1.2c0.6,0,1.3,0,1.9,0c0.1,0.4,0.1,0.9,0.2,1.3
		C296.7,304,295.9,303.9,295.1,303.9z"/>
	<path class="st86" d="M207.1,313.5c-0.5,0-1,0.1-1.4,0.1c-1.2,0-2.7,0.3-2.8-1.4c-0.1-1.6,1.4-1.7,2.5-2c0.6-0.2,1.2-0.2,1.8-0.4
		c0.8-0.3,1.5-0.3,1.7,0.6C209.3,311.9,208.3,312.8,207.1,313.5z"/>
	<path class="st87" d="M207.1,313.5c0.2-1.2,3.8-2.5,0-3.7c0.9-0.5,2.2-2.1,2.7-0.3C210.3,311.2,209.7,313.3,207.1,313.5z"/>
	<path class="st88" d="M382.8,309.2c0.4-0.1,0.8-0.1,1.3-0.2c0.9-0.3,2-0.6,2.4,0.6c0.5,1.5-0.5,2.4-1.7,3.1
		c-1.5-0.3-3.1,0.6-4.4-0.7C379.5,309.7,381.5,309.8,382.8,309.2z"/>
	<path class="st89" d="M384.8,312.8c0.7-1,2.1-1.8,1.5-3.3c-0.4-0.9-1.5-0.1-2.3-0.4c1.2-0.3,2.7-2.4,3.4-0.2
		C387.9,310.4,387.4,312.7,384.8,312.8z"/>
	<path class="st62" d="M382.8,309.2c-1.1,0.7-2.6,1.1-2.4,2.8C378.8,309.2,380.9,309.2,382.8,309.2z"/>
	<path d="M196.4,255.6c0.2,0.2,0.3,0.4,0.5,0.6c-0.2,0-0.5,0-0.7,0C196.1,256,196.2,255.8,196.4,255.6z"/>
</g>
</svg>
