<?xml version="1.0" encoding="utf-8"?>
<!-- Generator: Adobe Illustrator 19.0.0, SVG Export Plug-In . SVG Version: 6.00 Build 0)  -->
<svg version="1.1" id="Layer_1" xmlns="http://www.w3.org/2000/svg" xmlns:xlink="http://www.w3.org/1999/xlink" x="0px" y="0px"
	 viewBox="313 -108 450 300" style="enable-background:new 313 -108 450 300;" xml:space="preserve">
<style type="text/css">
	.st0{fill:none;stroke:#5ABA47;stroke-width:0.5;stroke-miterlimit:10;}
	.st1{clip-path:url(#SVGID_2_);fill:none;stroke:#5ABA47;stroke-width:0.5;stroke-miterlimit:10;}
	.st2{clip-path:url(#SVGID_4_);fill:none;stroke:#5ABA47;stroke-width:0.5;stroke-miterlimit:10;}
	.st3{clip-path:url(#SVGID_6_);fill:none;stroke:#5ABA47;stroke-width:0.5;stroke-miterlimit:10;}
	.st4{clip-path:url(#SVGID_8_);fill:#FFFFFF;}
	.st5{clip-path:url(#SVGID_10_);fill:none;stroke:#44302B;stroke-width:12;stroke-miterlimit:10;}
	.st6{clip-path:url(#SVGID_12_);fill:#FFFFFF;}
	.st7{clip-path:url(#SVGID_14_);fill:none;stroke:#939598;stroke-width:10;stroke-miterlimit:10;}
	.st8{clip-path:url(#SVGID_16_);fill:#FFFFFF;}
	.st9{clip-path:url(#SVGID_18_);fill:none;stroke:#939598;stroke-width:10;stroke-miterlimit:10;}
	.st10{clip-path:url(#SVGID_20_);fill:#FFFFFF;}
	.st11{clip-path:url(#SVGID_22_);fill:none;stroke:#594A42;stroke-width:14;stroke-miterlimit:10;}
	.st12{fill:#15381C;}
	.st13{font-family:'ArialMT';}
	.st14{font-size:36px;}
	.st15{clip-path:url(#SVGID_24_);fill:none;stroke:#12512C;stroke-miterlimit:10;}
	.st16{clip-path:url(#SVGID_26_);fill:none;stroke:#12512C;stroke-miterlimit:10;}
	.st17{clip-path:url(#SVGID_28_);fill:none;stroke:#12512C;stroke-miterlimit:10;}
	.st18{clip-path:url(#SVGID_30_);fill:none;stroke:#12512C;stroke-miterlimit:10;}
	.st19{clip-path:url(#SVGID_32_);fill:none;stroke:#12512C;stroke-miterlimit:10;}
	.st20{clip-path:url(#SVGID_34_);fill:none;stroke:#12512C;stroke-miterlimit:10;}
	.st21{clip-path:url(#SVGID_36_);fill:none;stroke:#12512C;stroke-miterlimit:10;}
	.st22{clip-path:url(#SVGID_38_);fill:none;stroke:#12512C;stroke-miterlimit:10;}
	.st23{clip-path:url(#SVGID_40_);fill:none;stroke:#12512C;stroke-miterlimit:10;}
	.st24{clip-path:url(#SVGID_42_);fill:none;stroke:#12512C;stroke-miterlimit:10;}
	.st25{clip-path:url(#SVGID_44_);fill:none;stroke:#12512C;stroke-miterlimit:10;}
	.st26{clip-path:url(#SVGID_46_);fill:none;stroke:#12512C;stroke-miterlimit:10;}
	.st27{clip-path:url(#SVGID_48_);fill:none;stroke:#12512C;stroke-miterlimit:10;}
	.st28{clip-path:url(#SVGID_50_);fill:none;stroke:#12512C;stroke-miterlimit:10;}
	.st29{clip-path:url(#SVGID_52_);fill:none;stroke:#12512C;stroke-miterlimit:10;}
	.st30{clip-path:url(#SVGID_54_);fill:none;stroke:#12512C;stroke-miterlimit:10;}
	.st31{clip-path:url(#SVGID_56_);fill:none;stroke:#12512C;stroke-miterlimit:10;}
	.st32{clip-path:url(#SVGID_58_);fill:none;stroke:#12512C;stroke-miterlimit:10;}
	.st33{clip-path:url(#SVGID_60_);fill:none;stroke:#12512C;stroke-miterlimit:10;}
	.st34{clip-path:url(#SVGID_62_);fill:none;stroke:#12512C;stroke-miterlimit:10;}
	.st35{clip-path:url(#SVGID_64_);fill:none;stroke:#12512C;stroke-miterlimit:10;}
	.st36{font-family:'BrushScriptMT';}
	.st37{font-size:18px;}
	.st38{clip-path:url(#SVGID_66_);fill:url(#SVGID_67_);}
	.st39{clip-path:url(#SVGID_69_);fill:none;stroke:#5ABA47;stroke-width:0.5;stroke-miterlimit:10;}
	.st40{clip-path:url(#SVGID_71_);fill:#FFFFFF;}
	.st41{clip-path:url(#SVGID_73_);fill:none;stroke:#FFFFFF;stroke-width:0.5;stroke-miterlimit:10;}
	.st42{clip-path:url(#SVGID_75_);fill:#0C3A28;}
	.st43{clip-path:url(#SVGID_77_);fill:none;stroke:#5ABA47;stroke-width:0.5;stroke-miterlimit:10;}
	.st44{clip-path:url(#SVGID_79_);fill:#FFFFFF;}
	.st45{clip-path:url(#SVGID_81_);fill:none;stroke:#FFFFFF;stroke-width:0.5;stroke-miterlimit:10;}
	.st46{clip-path:url(#SVGID_83_);fill:#0C5F6D;}
	.st47{clip-path:url(#SVGID_85_);fill:none;stroke:#5ABA47;stroke-width:0.5;stroke-miterlimit:10;}
	.st48{clip-path:url(#SVGID_87_);}
	.st49{clip-path:url(#SVGID_89_);fill:none;stroke:#5ABA47;stroke-width:0.5;stroke-miterlimit:10;}
	.st50{clip-path:url(#SVGID_91_);fill:url(#SVGID_92_);}
	.st51{clip-path:url(#SVGID_94_);fill:none;stroke:#5ABA47;stroke-width:0.5;stroke-miterlimit:10;}
	.st52{clip-path:url(#SVGID_96_);fill:none;stroke:#000000;stroke-width:2;stroke-miterlimit:10;}
</style>
<line class="st0" x1="575.3" y1="336" x2="576" y2="336"/>
<g>
	<g>
		<defs>
			<rect id="SVGID_1_" x="232" y="-354" width="612" height="792"/>
		</defs>
		<clipPath id="SVGID_2_">
			<use xlink:href="#SVGID_1_"  style="overflow:visible;"/>
		</clipPath>
		<path class="st1" d="M683.5,331c-0.7,0-1.3-0.8-1-1.5"/>
	</g>
	<g>
		<defs>
			<rect id="SVGID_3_" x="232" y="-354" width="612" height="792"/>
		</defs>
		<clipPath id="SVGID_4_">
			<use xlink:href="#SVGID_3_"  style="overflow:visible;"/>
		</clipPath>
		<path class="st2" d="M660.5,312.5c0.2-0.2,0.3-0.3,0.5-0.5"/>
	</g>
	<g>
		<defs>
			<rect id="SVGID_5_" x="232" y="-354" width="612" height="792"/>
		</defs>
		<clipPath id="SVGID_6_">
			<use xlink:href="#SVGID_5_"  style="overflow:visible;"/>
		</clipPath>
		<line class="st3" x1="680.5" y1="252.1" x2="682.5" y2="252.1"/>
	</g>
	<g>
		<defs>
			<rect id="SVGID_7_" x="232" y="-354" width="612" height="792"/>
		</defs>
		<clipPath id="SVGID_8_">
			<use xlink:href="#SVGID_7_"  style="overflow:visible;"/>
		</clipPath>
		<path class="st4" d="M485.6,80.7c26.1-58.5,56.1-88.2,68.1-86.5c28.6,4.1,26.4,86,83.3,116c20.3,10.7,41.2,11.8,56.7,10.7"/>
	</g>
	<g>
		<defs>
			<rect id="SVGID_9_" x="232" y="-354" width="612" height="792"/>
		</defs>
		<clipPath id="SVGID_10_">
			<use xlink:href="#SVGID_9_"  style="overflow:visible;"/>
		</clipPath>
		<path class="st5" d="M485.6,80.7c26.1-58.5,56.1-88.2,68.1-86.5c28.6,4.1,26.4,86,83.3,116c20.3,10.7,41.2,11.8,56.7,10.7"/>
	</g>
	<g>
		<defs>
			<rect id="SVGID_11_" x="232" y="-354" width="612" height="792"/>
		</defs>
		<clipPath id="SVGID_12_">
			<use xlink:href="#SVGID_11_"  style="overflow:visible;"/>
		</clipPath>
		<path class="st6" d="M403.4,140.7c3.7-9,9.5-20.1,17.1-20.6c9.2-0.7,13.2,14.6,23.6,17.9c2.4,0.8,4.8,1.7,7.5,1.5
			c10.1-0.9,11.4-13,19.1-16.8c14.4-6.9,30,25.3,61,26.7c17.1,0.7,32.6-8.2,38-11.3c15.6-9,14.6-15.3,24-18.7
			c21.5-7.6,38.5,20.7,68.7,26.7c15.2,3,38.4,1.3,71.3-23.3"/>
	</g>
	<g>
		<defs>
			<rect id="SVGID_13_" x="232" y="-354" width="612" height="792"/>
		</defs>
		<clipPath id="SVGID_14_">
			<use xlink:href="#SVGID_13_"  style="overflow:visible;"/>
		</clipPath>
		<path class="st7" d="M403.4,140.7c3.7-9,9.5-20.1,17.1-20.6c9.2-0.7,13.2,14.6,23.6,17.9c2.4,0.8,4.8,1.7,7.5,1.5
			c10.1-0.9,11.4-13,19.1-16.8c14.4-6.9,30,25.3,61,26.7c17.1,0.7,32.6-8.2,38-11.3c15.6-9,14.6-15.3,24-18.7
			c21.5-7.6,38.5,20.7,68.7,26.7c15.2,3,38.4,1.3,71.3-23.3"/>
	</g>
	<g>
		<defs>
			<rect id="SVGID_15_" x="232" y="-354" width="612" height="792"/>
		</defs>
		<clipPath id="SVGID_16_">
			<use xlink:href="#SVGID_15_"  style="overflow:visible;"/>
		</clipPath>
		<path class="st8" d="M361,142.5c3.8-3.8,9.8-8.4,17.6-8.7c9.4-0.3,13.1,14.2,23.7,15.6c6.6,0.9,11.6-4.9,26.5-13.6"/>
	</g>
	<g>
		<defs>
			<rect id="SVGID_17_" x="232" y="-354" width="612" height="792"/>
		</defs>
		<clipPath id="SVGID_18_">
			<use xlink:href="#SVGID_17_"  style="overflow:visible;"/>
		</clipPath>
		<path class="st9" d="M361,142.5c3.8-3.8,9.8-8.4,17.6-8.7c9.4-0.3,13.1,14.2,23.7,15.6c6.6,0.9,11.6-4.9,26.5-13.6"/>
	</g>
	<g>
		<defs>
			<rect id="SVGID_19_" x="232" y="-354" width="612" height="792"/>
		</defs>
		<clipPath id="SVGID_20_">
			<use xlink:href="#SVGID_19_"  style="overflow:visible;"/>
		</clipPath>
		<path class="st10" d="M552.8,43.5c-3.8-8.3-7.2-9.9-9.3-10c-15.5-0.8-24,69.6-48,71.3c-9.4,0.7-16.1-9.6-27.3-6
			c-6.2,2-10.2,7.2-12.7,11.3"/>
	</g>
	<g>
		<defs>
			<rect id="SVGID_21_" x="232" y="-354" width="612" height="792"/>
		</defs>
		<clipPath id="SVGID_22_">
			<use xlink:href="#SVGID_21_"  style="overflow:visible;"/>
		</clipPath>
		<path class="st11" d="M552.8,43.5c-3.8-8.3-7.2-9.9-9.3-10c-15.5-0.8-24,69.6-48,71.3c-9.4,0.7-16.1-9.6-27.3-6
			c-6.2,2-10.2,7.2-12.7,11.3"/>
	</g>
</g>
<text transform="matrix(1 -4.230001e-003 4.230001e-003 1 378.6684 190.1042)" class="st12 st13 st14">nature Sight restaurant</text>
<g>
	<g>
		<defs>
			<rect id="SVGID_23_" x="232" y="-354" width="612" height="792"/>
		</defs>
		<clipPath id="SVGID_24_">
			<use xlink:href="#SVGID_23_"  style="overflow:visible;"/>
		</clipPath>
		<path class="st15" d="M384.2,190.1v-10.2c0-2.4,0.5-4,1.4-4.9c1-0.9,2.1-1.3,3.5-1.3c0.8,0,1.6,0.2,2.2,0.6
			c0.6,0.4,1.1,0.9,1.3,1.5c0.2,0.6,0.4,1.6,0.4,2.9v11.4h3.2v-11.5c0-1.5-0.1-2.5-0.2-3.1c-0.2-0.9-0.5-1.7-1-2.3
			c-0.5-0.7-1.2-1.2-2.1-1.6c-0.9-0.4-2-0.6-3.1-0.6c-2.6,0-4.6,1-5.9,3.1v-2.7h-2.8l0.1,18.7L384.2,190.1z"/>
	</g>
	<g>
		<defs>
			<rect id="SVGID_25_" x="232" y="-354" width="612" height="792"/>
		</defs>
		<clipPath id="SVGID_26_">
			<use xlink:href="#SVGID_25_"  style="overflow:visible;"/>
		</clipPath>
		<path class="st16" d="M413,181.8c0,1.4-0.2,2.4-0.5,3.2c-0.4,0.9-1.1,1.7-2.1,2.2c-0.9,0.5-2,0.8-3.2,0.8c-1.2,0-2.2-0.3-2.8-0.8
			c-0.6-0.6-1-1.3-1-2.1c0-0.6,0.1-1.1,0.4-1.5c0.3-0.5,0.7-0.8,1.2-1s1.5-0.5,2.8-0.6c2.3-0.3,4-0.7,5.2-1.2V181.8z M413.9,190h3.3
			c-0.4-0.7-0.7-1.5-0.8-2.2c-0.1-0.8-0.2-2.6-0.2-5.6V178c0-1.4-0.1-2.4-0.2-2.9c-0.2-0.9-0.5-1.6-1-2.1c-0.5-0.6-1.2-1-2.2-1.4
			s-2.3-0.6-3.9-0.5c-1.6,0-3,0.2-4.2,0.7c-1.2,0.4-2.1,1.1-2.8,1.9c-0.6,0.8-1.1,1.9-1.4,3.2l3.1,0.4c0.3-1.3,0.9-2.3,1.6-2.8
			s1.8-0.8,3.3-0.8c1.6,0,2.8,0.3,3.6,1.1c0.6,0.5,0.9,1.4,0.9,2.7c0,0.1,0,0.4,0,0.8c-1.2,0.4-3.1,0.8-5.6,1.1
			c-1.3,0.2-2.2,0.3-2.8,0.5c-0.8,0.2-1.6,0.6-2.3,1c-0.7,0.5-1.2,1.1-1.6,1.8s-0.6,1.6-0.6,2.5c0,1.6,0.6,2.8,1.7,3.8
			c1.1,1,2.7,1.5,4.7,1.5c1.2,0,2.4-0.2,3.5-0.6c1.1-0.4,2.2-1.1,3.4-2.1C413.3,188.5,413.6,189.3,413.9,190z"/>
	</g>
	<g>
		<defs>
			<rect id="SVGID_27_" x="232" y="-354" width="612" height="792"/>
		</defs>
		<clipPath id="SVGID_28_">
			<use xlink:href="#SVGID_27_"  style="overflow:visible;"/>
		</clipPath>
		<path class="st17" d="M426.6,187.2c-0.5,0-0.8-0.1-1.1-0.2c-0.3-0.2-0.4-0.4-0.5-0.6c-0.1-0.3-0.2-0.8-0.2-1.7v-10.9h3.2v-2.5
			h-3.2v-6.5l-3.1,1.9v4.6h-2.3v2.5h2.3v10.7c0,1.9,0.1,3.1,0.4,3.7c0.3,0.6,0.7,1.1,1.3,1.4c0.6,0.4,1.5,0.5,2.7,0.5
			c0.7,0,1.5-0.1,2.4-0.3L428,187C427.4,187.2,427,187.2,426.6,187.2z"/>
	</g>
	<g>
		<defs>
			<rect id="SVGID_29_" x="232" y="-354" width="612" height="792"/>
		</defs>
		<clipPath id="SVGID_30_">
			<use xlink:href="#SVGID_29_"  style="overflow:visible;"/>
		</clipPath>
		<path class="st18" d="M446.2,189.8l-0.1-18.7h-3.2v10c0,1.6-0.2,2.8-0.5,3.6s-0.9,1.5-1.8,2c-0.8,0.5-1.7,0.7-2.7,0.7
			c-0.9,0-1.7-0.2-2.4-0.7c-0.6-0.5-1.1-1.1-1.3-2c-0.1-0.6-0.2-1.7-0.2-3.3V171h-3.2v11.6c0,1.3,0.1,2.3,0.2,3
			c0.2,0.9,0.5,1.7,1,2.3s1.2,1.2,2.1,1.6c1,0.4,2,0.6,3.1,0.6c2.5,0,4.5-1.1,5.9-3.2v2.7L446.2,189.8z"/>
	</g>
	<g>
		<defs>
			<rect id="SVGID_31_" x="232" y="-354" width="612" height="792"/>
		</defs>
		<clipPath id="SVGID_32_">
			<use xlink:href="#SVGID_31_"  style="overflow:visible;"/>
		</clipPath>
		<path class="st19" d="M454.3,189.8V180c0-1.3,0.2-2.6,0.5-3.7c0.2-0.7,0.6-1.3,1.2-1.7c0.5-0.4,1.2-0.6,1.9-0.6
			c0.8,0,1.5,0.2,2.3,0.7l1.1-2.9c-1.1-0.7-2.2-1-3.3-1c-0.7,0-1.4,0.2-2,0.6c-0.6,0.4-1.3,1.3-2,2.6v-2.8h-2.8l0.1,18.7
			L454.3,189.8z"/>
	</g>
	<g>
		<defs>
			<rect id="SVGID_33_" x="232" y="-354" width="612" height="792"/>
		</defs>
		<clipPath id="SVGID_34_">
			<use xlink:href="#SVGID_33_"  style="overflow:visible;"/>
		</clipPath>
		<path class="st20" d="M467.1,174.7c1-1,2.2-1.5,3.7-1.5c1.6,0,2.9,0.6,3.9,1.8c0.7,0.8,1.1,2,1.2,3.5h-10.4
			C465.6,177,466.1,175.7,467.1,174.7z M473.9,186.6c-0.8,0.6-1.8,0.9-3,0.9c-1.6,0-2.9-0.5-3.9-1.6s-1.6-2.7-1.8-4.7l13.9-0.1
			c0-0.4,0-0.7,0-0.8c0-3.1-0.8-5.5-2.4-7.2c-1.6-1.7-3.6-2.5-6.1-2.5c-2.6,0-4.7,0.9-6.3,2.6c-1.6,1.7-2.4,4.2-2.4,7.3
			c0,3,0.8,5.4,2.4,7.1c1.6,1.7,3.8,2.5,6.5,2.5c2.2,0,3.9-0.5,5.3-1.6c1.4-1.1,2.3-2.5,2.8-4.5l-3.3-0.4
			C475.4,185,474.7,186,473.9,186.6z"/>
	</g>
	<g>
		<defs>
			<rect id="SVGID_35_" x="232" y="-354" width="612" height="792"/>
		</defs>
		<clipPath id="SVGID_36_">
			<use xlink:href="#SVGID_35_"  style="overflow:visible;"/>
		</clipPath>
		<path class="st21" d="M493.8,186c0.9,1.4,2.1,2.4,3.7,3.1c1.6,0.7,3.5,1,5.9,1c1.8,0,3.5-0.4,5-1c1.5-0.7,2.6-1.6,3.4-2.8
			s1.2-2.5,1.2-3.9s-0.4-2.6-1.1-3.7c-0.7-1.1-1.8-1.9-3.3-2.6c-1-0.5-2.9-1-5.7-1.6c-2.8-0.6-4.5-1.2-5.1-1.8c-0.7-0.6-1-1.4-1-2.3
			c0-1.1,0.5-2,1.4-2.7c0.9-0.8,2.4-1.1,4.5-1.2c2,0,3.5,0.4,4.5,1.2s1.6,2.1,1.8,3.7l3.3-0.3c-0.1-1.5-0.5-2.9-1.3-4.1
			c-0.8-1.2-1.9-2.1-3.4-2.7c-1.5-0.6-3.1-0.9-5.1-0.9c-1.7,0-3.3,0.3-4.7,0.9c-1.4,0.6-2.5,1.5-3.2,2.6s-1.1,2.4-1.1,3.7
			c0,1.2,0.3,2.3,0.9,3.2c0.6,1,1.5,1.7,2.8,2.4c1,0.5,2.6,1,5,1.6s3.9,1,4.6,1.2c1.1,0.4,1.9,0.9,2.3,1.5c0.5,0.6,0.7,1.3,0.7,2.1
			s-0.2,1.5-0.7,2.2s-1.2,1.2-2.2,1.6c-1,0.4-2.1,0.6-3.4,0.6c-1.5,0-2.8-0.2-4-0.7s-2-1.2-2.6-2s-0.9-1.9-1.1-3.2l-3.2,0.3
			C492.4,183.1,492.9,184.6,493.8,186z"/>
	</g>
	<g>
		<defs>
			<rect id="SVGID_37_" x="232" y="-354" width="612" height="792"/>
		</defs>
		<clipPath id="SVGID_38_">
			<use xlink:href="#SVGID_37_"  style="overflow:visible;"/>
		</clipPath>
		<path class="st22" d="M520.3,189.5l-0.1-18.7H517l0.1,18.7H520.3z M520.2,167.4v-3.6H517v3.6H520.2z"/>
	</g>
	<g>
		<defs>
			<rect id="SVGID_39_" x="232" y="-354" width="612" height="792"/>
		</defs>
		<clipPath id="SVGID_40_">
			<use xlink:href="#SVGID_39_"  style="overflow:visible;"/>
		</clipPath>
		<path class="st23" d="M528.6,174.7c1-1.1,2.2-1.7,3.6-1.7s2.7,0.6,3.7,1.7c1,1.2,1.5,2.9,1.5,5.2c0,2.4-0.5,4.1-1.5,5.3
			c-1,1.1-2.2,1.7-3.6,1.7c-1.5,0-2.7-0.6-3.7-1.7c-1-1.1-1.5-2.9-1.5-5.4C527.1,177.6,527.6,175.9,528.6,174.7z M526.6,195.6
			c1.4,1,3.2,1.5,5.4,1.5c1.9,0,3.5-0.4,4.7-1.1c1.3-0.7,2.2-1.7,2.8-2.9s0.9-3.3,0.9-6.2l-0.1-16.1h-2.9v2.3
			c-1.4-1.8-3.3-2.7-5.5-2.6c-1.7,0-3.1,0.4-4.3,1.3c-1.2,0.8-2.2,2-2.8,3.5c-0.6,1.5-1,3.2-0.9,4.9c0,2.6,0.7,4.8,2.1,6.7
			c1.4,1.8,3.4,2.8,6,2.8c2.1,0,3.8-0.8,5.2-2.5c0,2.1-0.1,3.4-0.2,4.1c-0.3,1.1-0.8,1.9-1.6,2.5c-0.8,0.6-1.9,0.9-3.4,0.9
			c-1.4,0-2.4-0.3-3.2-0.9c-0.6-0.4-0.9-1.1-1.1-2.1l-3.1-0.4C524.5,193.1,525.2,194.6,526.6,195.6z"/>
	</g>
	<g>
		<defs>
			<rect id="SVGID_41_" x="232" y="-354" width="612" height="792"/>
		</defs>
		<clipPath id="SVGID_42_">
			<use xlink:href="#SVGID_41_"  style="overflow:visible;"/>
		</clipPath>
		<path class="st24" d="M548.3,189.4v-10.2c0-1.5,0.2-2.6,0.5-3.4c0.3-0.8,0.9-1.5,1.8-2c0.8-0.5,1.7-0.7,2.6-0.7
			c1.3,0,2.2,0.4,2.9,1.1c0.7,0.7,1,1.9,1,3.5l0.1,11.8h3.2v-11.8c0-1.8-0.2-3.2-0.7-4.2c-0.4-1-1.2-1.7-2.2-2.2s-2.2-0.8-3.6-0.8
			c-2.3,0-4.1,0.9-5.6,2.6v-9.2h-3.2l0.1,25.8L548.3,189.4z"/>
	</g>
	<g>
		<defs>
			<rect id="SVGID_43_" x="232" y="-354" width="612" height="792"/>
		</defs>
		<clipPath id="SVGID_44_">
			<use xlink:href="#SVGID_43_"  style="overflow:visible;"/>
		</clipPath>
		<path class="st25" d="M570.7,186.6c-0.5,0-0.8-0.1-1.1-0.2c-0.3-0.2-0.4-0.4-0.5-0.6c-0.1-0.3-0.2-0.8-0.2-1.7v-10.9h3.2v-2.5
			h-3.2v-6.5l-3.1,1.9v4.6h-2.3v2.5h2.3v10.7c0,1.9,0.1,3.1,0.4,3.7c0.3,0.6,0.7,1.1,1.3,1.4c0.6,0.4,1.5,0.5,2.7,0.5
			c0.7,0,1.5-0.1,2.4-0.3l-0.5-2.8C571.5,186.5,571,186.6,570.7,186.6z"/>
	</g>
	<g>
		<defs>
			<rect id="SVGID_45_" x="232" y="-354" width="612" height="792"/>
		</defs>
		<clipPath id="SVGID_46_">
			<use xlink:href="#SVGID_45_"  style="overflow:visible;"/>
		</clipPath>
		<path class="st26" d="M588.3,189.2v-9.8c0-1.3,0.2-2.6,0.5-3.7c0.2-0.7,0.6-1.3,1.2-1.7c0.5-0.4,1.2-0.6,1.9-0.6
			c0.8,0,1.5,0.2,2.3,0.7l1.1-2.9c-1.1-0.7-2.2-1-3.3-1c-0.7,0-1.4,0.2-2,0.6c-0.6,0.4-1.3,1.3-2,2.6v-2.8h-2.8l0.1,18.7
			L588.3,189.2z"/>
	</g>
	<g>
		<defs>
			<rect id="SVGID_47_" x="232" y="-354" width="612" height="792"/>
		</defs>
		<clipPath id="SVGID_48_">
			<use xlink:href="#SVGID_47_"  style="overflow:visible;"/>
		</clipPath>
		<path class="st27" d="M601.1,174.1c1-1,2.2-1.5,3.7-1.5c1.6,0,2.9,0.6,3.9,1.8c0.7,0.8,1.1,2,1.2,3.5h-10.4
			C599.6,176.4,600.2,175.1,601.1,174.1z M608,186c-0.8,0.6-1.8,0.9-3,0.9c-1.6,0-2.9-0.5-3.9-1.6s-1.6-2.7-1.8-4.7l13.9-0.1
			c0-0.4,0-0.7,0-0.8c0-3.1-0.8-5.5-2.4-7.2c-1.6-1.7-3.6-2.5-6.1-2.5c-2.6,0-4.7,0.9-6.3,2.6c-1.6,1.7-2.4,4.2-2.4,7.3
			c0,3,0.8,5.4,2.4,7.1c1.6,1.7,3.8,2.5,6.5,2.5c2.2,0,3.9-0.5,5.3-1.6s2.3-2.5,2.8-4.5l-3.3-0.4C609.5,184.5,608.8,185.4,608,186z"
			/>
	</g>
	<g>
		<defs>
			<rect id="SVGID_49_" x="232" y="-354" width="612" height="792"/>
		</defs>
		<clipPath id="SVGID_50_">
			<use xlink:href="#SVGID_49_"  style="overflow:visible;"/>
		</clipPath>
		<path class="st28" d="M618.4,188c1.3,1,3.1,1.5,5.6,1.5c1.5,0,2.8-0.3,3.9-0.8c1.2-0.5,2-1.2,2.7-2.2c0.6-0.9,0.9-1.9,0.9-3
			s-0.3-2-0.8-2.7s-1.2-1.3-2.1-1.7c-0.9-0.4-2.4-0.9-4.7-1.4c-1.5-0.4-2.5-0.7-2.8-0.8c-0.6-0.2-1-0.5-1.2-0.8
			c-0.3-0.3-0.4-0.7-0.4-1.1c0-0.6,0.3-1.2,0.9-1.7c0.6-0.5,1.7-0.7,3.1-0.7c1.2,0,2.2,0.3,2.9,0.8c0.7,0.5,1.1,1.3,1.2,2.2l3.1-0.4
			c-0.2-1.2-0.6-2.2-1.1-2.9s-1.4-1.3-2.5-1.7c-1.1-0.4-2.4-0.6-3.9-0.6c-1,0-1.9,0.1-2.7,0.4c-0.8,0.3-1.5,0.6-2,0.9
			c-0.7,0.5-1.2,1.1-1.5,1.8c-0.4,0.7-0.6,1.5-0.6,2.3c0,0.9,0.2,1.7,0.7,2.5s1.1,1.3,2,1.8c0.9,0.4,2.5,0.9,4.8,1.5
			c1.7,0.4,2.8,0.8,3.2,1.1c0.6,0.4,0.9,1,0.9,1.7c0,0.8-0.3,1.5-1,2.1s-1.8,0.9-3.2,0.9c-1.4,0-2.6-0.3-3.4-1
			c-0.8-0.7-1.3-1.6-1.5-2.9l-3.1,0.5C616.3,185.5,617.1,187,618.4,188z"/>
	</g>
	<g>
		<defs>
			<rect id="SVGID_51_" x="232" y="-354" width="612" height="792"/>
		</defs>
		<clipPath id="SVGID_52_">
			<use xlink:href="#SVGID_51_"  style="overflow:visible;"/>
		</clipPath>
		<path class="st29" d="M640.7,186.3c-0.5,0-0.8-0.1-1.1-0.2c-0.3-0.2-0.4-0.4-0.5-0.6c-0.1-0.3-0.2-0.8-0.2-1.7v-10.9h3.2v-2.5
			h-3.2v-6.5l-3.1,1.9v4.6h-2.3v2.5h2.3v10.7c0,1.9,0.1,3.1,0.4,3.7c0.3,0.6,0.7,1.1,1.3,1.4c0.6,0.4,1.5,0.5,2.7,0.5
			c0.7,0,1.5-0.1,2.4-0.3l-0.5-2.8C641.5,186.2,641.1,186.3,640.7,186.3z"/>
	</g>
	<g>
		<defs>
			<rect id="SVGID_53_" x="232" y="-354" width="612" height="792"/>
		</defs>
		<clipPath id="SVGID_54_">
			<use xlink:href="#SVGID_53_"  style="overflow:visible;"/>
		</clipPath>
		<path class="st30" d="M657.1,180.7c0,1.4-0.2,2.5-0.5,3.2c-0.4,0.9-1.1,1.7-2.1,2.2c-0.9,0.5-2,0.8-3.2,0.8s-2.2-0.3-2.8-0.8
			c-0.6-0.6-1-1.3-1-2.1c0-0.6,0.1-1.1,0.4-1.5c0.3-0.5,0.7-0.8,1.2-1s1.5-0.5,2.8-0.6c2.3-0.3,4-0.7,5.2-1.2V180.7z M658,188.9h3.3
			c-0.4-0.7-0.7-1.5-0.8-2.2c-0.1-0.8-0.2-2.6-0.2-5.6v-4.2c0-1.4-0.1-2.4-0.2-2.9c-0.2-0.9-0.5-1.6-1-2.1c-0.5-0.6-1.2-1-2.2-1.4
			s-2.3-0.6-3.9-0.5c-1.6,0-3,0.2-4.2,0.7c-1.2,0.4-2.1,1.1-2.8,1.9c-0.6,0.8-1.1,1.9-1.4,3.2l3.1,0.4c0.3-1.3,0.9-2.3,1.6-2.8
			s1.8-0.8,3.3-0.8c1.6,0,2.8,0.3,3.6,1.1c0.6,0.5,0.9,1.4,0.9,2.7c0,0.1,0,0.4,0,0.8c-1.2,0.4-3.1,0.8-5.6,1.1
			c-1.3,0.2-2.2,0.3-2.8,0.5c-0.8,0.2-1.6,0.6-2.3,1c-0.7,0.5-1.2,1.1-1.6,1.8c-0.4,0.8-0.6,1.6-0.6,2.5c0,1.6,0.6,2.8,1.7,3.8
			c1.1,1,2.7,1.5,4.7,1.5c1.2,0,2.4-0.2,3.5-0.6c1.1-0.4,2.2-1.1,3.4-2.1C657.5,187.5,657.7,188.3,658,188.9z"/>
	</g>
	<g>
		<defs>
			<rect id="SVGID_55_" x="232" y="-354" width="612" height="792"/>
		</defs>
		<clipPath id="SVGID_56_">
			<use xlink:href="#SVGID_55_"  style="overflow:visible;"/>
		</clipPath>
		<path class="st31" d="M680.3,188.8l-0.1-18.7H677v10c0,1.6-0.2,2.8-0.5,3.6c-0.3,0.8-0.9,1.5-1.8,2c-0.8,0.5-1.7,0.7-2.7,0.7
			c-0.9,0-1.7-0.2-2.4-0.7c-0.6-0.5-1.1-1.1-1.3-2c-0.1-0.6-0.2-1.7-0.2-3.3V170h-3.2v11.6c0,1.3,0.1,2.3,0.2,3
			c0.2,0.9,0.5,1.7,1,2.3s1.2,1.2,2.1,1.6c1,0.4,2,0.6,3.1,0.6c2.5,0,4.5-1.1,5.9-3.2v2.7L680.3,188.8z"/>
	</g>
	<g>
		<defs>
			<rect id="SVGID_57_" x="232" y="-354" width="612" height="792"/>
		</defs>
		<clipPath id="SVGID_58_">
			<use xlink:href="#SVGID_57_"  style="overflow:visible;"/>
		</clipPath>
		<path class="st32" d="M688.4,188.8V179c0-1.3,0.2-2.6,0.5-3.7c0.2-0.7,0.6-1.3,1.2-1.7c0.5-0.4,1.2-0.6,1.9-0.6
			c0.8,0,1.5,0.2,2.3,0.7l1.1-2.9c-1.1-0.7-2.2-1-3.3-1c-0.7,0-1.4,0.2-2,0.6c-0.6,0.4-1.3,1.3-2,2.6v-2.8h-2.8l0.1,18.7
			L688.4,188.8z"/>
	</g>
	<g>
		<defs>
			<rect id="SVGID_59_" x="232" y="-354" width="612" height="792"/>
		</defs>
		<clipPath id="SVGID_60_">
			<use xlink:href="#SVGID_59_"  style="overflow:visible;"/>
		</clipPath>
		<path class="st33" d="M709.1,180.5c0,1.4-0.2,2.5-0.5,3.2c-0.4,0.9-1.1,1.7-2.1,2.2c-0.9,0.5-2,0.8-3.2,0.8s-2.2-0.3-2.8-0.8
			c-0.6-0.6-1-1.3-1-2.1c0-0.6,0.1-1.1,0.4-1.5c0.3-0.5,0.7-0.8,1.2-1s1.5-0.5,2.8-0.6c2.3-0.3,4-0.7,5.2-1.2V180.5z M710,188.7h3.3
			c-0.4-0.7-0.7-1.5-0.8-2.2c-0.1-0.8-0.2-2.6-0.2-5.6v-4.2c0-1.4-0.1-2.4-0.2-2.9c-0.2-0.9-0.5-1.6-1-2.1c-0.5-0.6-1.2-1-2.2-1.4
			s-2.3-0.6-3.9-0.5c-1.6,0-3,0.2-4.2,0.7c-1.2,0.4-2.1,1.1-2.8,1.9c-0.6,0.8-1.1,1.9-1.4,3.2l3.1,0.4c0.3-1.3,0.9-2.3,1.6-2.8
			s1.8-0.8,3.3-0.8c1.6,0,2.8,0.3,3.6,1.1c0.6,0.5,0.9,1.4,0.9,2.7c0,0.1,0,0.4,0,0.8c-1.2,0.4-3.1,0.8-5.6,1.1
			c-1.3,0.2-2.2,0.3-2.8,0.5c-0.8,0.2-1.6,0.6-2.3,1c-0.7,0.5-1.2,1.1-1.6,1.8c-0.4,0.8-0.6,1.6-0.6,2.5c0,1.6,0.6,2.8,1.7,3.8
			c1.1,1,2.7,1.5,4.7,1.5c1.2,0,2.4-0.2,3.5-0.6c1.1-0.4,2.2-1.1,3.4-2.1C709.5,187.3,709.7,188.1,710,188.7z"/>
	</g>
	<g>
		<defs>
			<rect id="SVGID_61_" x="232" y="-354" width="612" height="792"/>
		</defs>
		<clipPath id="SVGID_62_">
			<use xlink:href="#SVGID_61_"  style="overflow:visible;"/>
		</clipPath>
		<path class="st34" d="M720.4,188.7v-10.2c0-2.4,0.5-4,1.4-4.9c1-0.9,2.1-1.3,3.5-1.3c0.8,0,1.6,0.2,2.2,0.6
			c0.6,0.4,1.1,0.9,1.3,1.5s0.4,1.6,0.4,2.9v11.4h3.2v-11.5c0-1.5-0.1-2.5-0.2-3.1c-0.2-0.9-0.5-1.7-1-2.3c-0.5-0.7-1.2-1.2-2.1-1.6
			c-0.9-0.4-2-0.6-3.1-0.6c-2.6,0-4.6,1-5.9,3.1V170h-2.8l0.1,18.7L720.4,188.7z"/>
	</g>
	<g>
		<defs>
			<rect id="SVGID_63_" x="232" y="-354" width="612" height="792"/>
		</defs>
		<clipPath id="SVGID_64_">
			<use xlink:href="#SVGID_63_"  style="overflow:visible;"/>
		</clipPath>
		<path class="st35" d="M742.8,185.9c-0.5,0-0.8-0.1-1.1-0.2c-0.3-0.2-0.4-0.4-0.5-0.6c-0.1-0.3-0.2-0.8-0.2-1.7v-10.9h3.2V170H741
			v-6.5l-3.1,1.9v4.6h-2.3v2.5h2.3v10.7c0,1.9,0.1,3.1,0.4,3.7c0.3,0.6,0.7,1.1,1.3,1.4c0.6,0.4,1.5,0.5,2.7,0.5
			c0.7,0,1.5-0.1,2.4-0.3l-0.5-2.8C743.6,185.8,743.1,185.9,742.8,185.9z"/>
	</g>
</g>
<text transform="matrix(1 0 0 1 361.9087 109.667)" class="st36 st37">f</text>
<text transform="matrix(1 0 0 1 366.5087 109.667)" class="st36 st37">ami</text>
<text transform="matrix(1 0 0 1 387.9087 109.667)" class="st36 st37">l</text>
<text transform="matrix(1 0 0 1 391.8087 109.667)" class="st36 st37">y </text>
<text transform="matrix(1 0 0 1 403.6087 109.667)" class="st36 st37">f</text>
<text transform="matrix(1 0 0 1 408.2087 109.667)" class="st36 st37">irst</text>
<g>
	<g>
		<defs>
			<path id="SVGID_65_" d="M436.5,19.4c-7.7,2.3-8.1,31.6,6,45.1c1,1,7.9,7.4,12.7,5.7c6.8-2.4,7-19.9,0.3-33
				c-4.1-8.1-12.5-17.9-17.9-17.9C437.2,19.3,436.9,19.3,436.5,19.4"/>
		</defs>
		<clipPath id="SVGID_66_">
			<use xlink:href="#SVGID_65_"  style="overflow:visible;"/>
		</clipPath>
		
			<linearGradient id="SVGID_67_" gradientUnits="userSpaceOnUse" x1="466.4217" y1="-727.8192" x2="467.4218" y2="-727.8192" gradientTransform="matrix(22.0624 -20.733 14.3946 15.3176 620.6223 20874.6445)">
			<stop  offset="0" style="stop-color:#00AB62"/>
			<stop  offset="8.602150e-002" style="stop-color:#00AB62"/>
			<stop  offset="0.1285" style="stop-color:#00B159"/>
			<stop  offset="0.1787" style="stop-color:#4EB84F"/>
			<stop  offset="0.23" style="stop-color:#68BD48"/>
			<stop  offset="0.2826" style="stop-color:#76C044"/>
			<stop  offset="0.3387" style="stop-color:#7AC143"/>
			<stop  offset="0.6685" style="stop-color:#7AB19B"/>
			<stop  offset="0.9355" style="stop-color:#1481B5"/>
			<stop  offset="1" style="stop-color:#5887AC"/>
		</linearGradient>
		<polygon class="st38" points="402.2,43.9 446.4,2.4 488.4,47.2 444.3,88.7 		"/>
	</g>
</g>
<g>
	<g>
		<defs>
			<rect id="SVGID_68_" x="232" y="-354" width="612" height="792"/>
		</defs>
		<clipPath id="SVGID_69_">
			<use xlink:href="#SVGID_68_"  style="overflow:visible;"/>
		</clipPath>
		<path class="st39" d="M455.2,70.1c-4.8,1.7-11.7-4.7-12.7-5.7c-14-13.4-13.7-42.8-6-45.1c5.2-1.6,14.6,9,19,17.7
			C462.2,50.3,461.9,67.8,455.2,70.1z"/>
	</g>
	<g>
		<defs>
			<rect id="SVGID_70_" x="232" y="-354" width="612" height="792"/>
		</defs>
		<clipPath id="SVGID_71_">
			<use xlink:href="#SVGID_70_"  style="overflow:visible;"/>
		</clipPath>
		<path class="st40" d="M455.7,62.9c-4,2.2-14.6-7.5-16.2-19.5c-0.5-3.9-0.5-11.1,2.4-12.6c3.6-1.8,11,5.6,14,14
			C458.2,51.3,458.9,61.1,455.7,62.9"/>
	</g>
	<g>
		<defs>
			<rect id="SVGID_72_" x="232" y="-354" width="612" height="792"/>
		</defs>
		<clipPath id="SVGID_73_">
			<use xlink:href="#SVGID_72_"  style="overflow:visible;"/>
		</clipPath>
		<path class="st41" d="M455.7,62.9c-4,2.2-14.6-7.5-16.2-19.5c-0.5-3.9-0.5-11.1,2.4-12.6c3.6-1.8,11,5.6,14,14
			C458.2,51.3,458.9,61.1,455.7,62.9z"/>
	</g>
	<g>
		<defs>
			<rect id="SVGID_74_" x="232" y="-354" width="612" height="792"/>
		</defs>
		<clipPath id="SVGID_75_">
			<use xlink:href="#SVGID_74_"  style="overflow:visible;"/>
		</clipPath>
		<path class="st42" d="M450.3,71.8c-3.2,4.6-12.5,3.3-13.9,3c-19.2-3-34.6-29.4-29.2-36.4c3.6-4.7,17.3-1.3,25.8,3.7
			C445.7,49.6,454.8,65.3,450.3,71.8"/>
	</g>
	<g>
		<defs>
			<rect id="SVGID_76_" x="232" y="-354" width="612" height="792"/>
		</defs>
		<clipPath id="SVGID_77_">
			<use xlink:href="#SVGID_76_"  style="overflow:visible;"/>
		</clipPath>
		<path class="st43" d="M450.3,71.8c-3.2,4.6-12.5,3.3-13.9,3c-19.2-3-34.6-29.4-29.2-36.4c3.6-4.7,17.3-1.3,25.8,3.7
			C445.7,49.6,454.8,65.3,450.3,71.8z"/>
	</g>
	<g>
		<defs>
			<rect id="SVGID_78_" x="232" y="-354" width="612" height="792"/>
		</defs>
		<clipPath id="SVGID_79_">
			<use xlink:href="#SVGID_78_"  style="overflow:visible;"/>
		</clipPath>
		<path class="st44" d="M437,71.1c-5.3-2-11.1-7.3-13.7-10.9c-2.8-3.8-3.1-7-2.3-9.5c1.1-3.5,8.5-3.1,14.1-0.3
			c8.3,4.1,15.5,15.1,13.8,19.5C447.6,73.4,440.9,72.6,437,71.1"/>
	</g>
	<g>
		<defs>
			<rect id="SVGID_80_" x="232" y="-354" width="612" height="792"/>
		</defs>
		<clipPath id="SVGID_81_">
			<use xlink:href="#SVGID_80_"  style="overflow:visible;"/>
		</clipPath>
		<path class="st45" d="M437,71.1c-5.3-2-11.1-7.3-13.7-10.9c-2.8-3.8-3.1-7-2.3-9.5c1.1-3.5,8.5-3.1,14.1-0.3
			c8.3,4.1,15.5,15.1,13.8,19.5C447.6,73.4,440.9,72.6,437,71.1z"/>
	</g>
	<g>
		<defs>
			<rect id="SVGID_82_" x="232" y="-354" width="612" height="792"/>
		</defs>
		<clipPath id="SVGID_83_">
			<use xlink:href="#SVGID_82_"  style="overflow:visible;"/>
		</clipPath>
		<path class="st46" d="M449.6,80.5c-1.2,5.1-10.2,7.8-11.5,8.2c-18.6,5.4-42.6-9.8-40.3-17.7c1.5-5.3,15.3-8.1,24.8-7.5
			C437,64.2,451.2,73.3,449.6,80.5"/>
	</g>
	<g>
		<defs>
			<rect id="SVGID_84_" x="232" y="-354" width="612" height="792"/>
		</defs>
		<clipPath id="SVGID_85_">
			<use xlink:href="#SVGID_84_"  style="overflow:visible;"/>
		</clipPath>
		<path class="st47" d="M449.6,80.5c-1.2,5.1-10.2,7.8-11.5,8.2c-18.6,5.4-42.6-9.8-40.3-17.7c1.5-5.3,15.3-8.1,24.8-7.5
			C437,64.2,451.2,73.3,449.6,80.5z"/>
	</g>
	<g>
		<defs>
			<rect id="SVGID_86_" x="232" y="-354" width="612" height="792"/>
		</defs>
		<clipPath id="SVGID_87_">
			<use xlink:href="#SVGID_86_"  style="overflow:visible;"/>
		</clipPath>
		<path class="st48" d="M441.4,96.4c-1.5-0.6,0.7-15.5,11.4-27c8.9-9.6,21.5-14.7,22.5-13.5c0.7,0.8-1.5,5.6-7,7.8
			c-8.7,3.5-10.7,3.5-14.7,7.6c-4.7,4.8-0.9,11.6-7.6,16.3C444,89,442.3,96.7,441.4,96.4"/>
	</g>
	<g>
		<defs>
			<rect id="SVGID_88_" x="232" y="-354" width="612" height="792"/>
		</defs>
		<clipPath id="SVGID_89_">
			<use xlink:href="#SVGID_88_"  style="overflow:visible;"/>
		</clipPath>
		<path class="st49" d="M441.4,96.4c-1.5-0.6,0.7-15.5,11.4-27c8.9-9.6,21.5-14.7,22.5-13.5c0.7,0.8-1.5,5.6-7,7.8
			c-8.7,3.5-10.7,3.5-14.7,7.6c-4.7,4.8-0.9,11.6-7.6,16.3C444,89,442.3,96.7,441.4,96.4z"/>
	</g>
</g>
<g>
	<g>
		<defs>
			<path id="SVGID_90_" d="M744.5,221h2.5H744.5z"/>
		</defs>
		<clipPath id="SVGID_91_">
			<use xlink:href="#SVGID_90_"  style="overflow:visible;"/>
		</clipPath>
		
			<linearGradient id="SVGID_92_" gradientUnits="userSpaceOnUse" x1="371.2" y1="-849.6" x2="372.2" y2="-849.6" gradientTransform="matrix(2.5 0 0 2.5 -183.5 2345)">
			<stop  offset="0" style="stop-color:#00AB62"/>
			<stop  offset="8.602150e-002" style="stop-color:#00AB62"/>
			<stop  offset="0.1285" style="stop-color:#00B159"/>
			<stop  offset="0.1787" style="stop-color:#4EB84F"/>
			<stop  offset="0.23" style="stop-color:#68BD48"/>
			<stop  offset="0.2826" style="stop-color:#76C044"/>
			<stop  offset="0.3387" style="stop-color:#7AC143"/>
			<stop  offset="0.6685" style="stop-color:#7AB19B"/>
			<stop  offset="0.9355" style="stop-color:#1481B5"/>
			<stop  offset="1" style="stop-color:#5887AC"/>
		</linearGradient>
		<path class="st50" d="M744.5,221h2.5H744.5z"/>
	</g>
</g>
<g>
	<g>
		<defs>
			<rect id="SVGID_93_" x="232" y="-351.2" width="612" height="792"/>
		</defs>
		<clipPath id="SVGID_94_">
			<use xlink:href="#SVGID_93_"  style="overflow:visible;"/>
		</clipPath>
		<line class="st51" x1="744.5" y1="223.8" x2="747" y2="223.8"/>
	</g>
	<g>
		<defs>
			<rect id="SVGID_95_" x="232" y="-351.2" width="612" height="792"/>
		</defs>
		<clipPath id="SVGID_96_">
			<use xlink:href="#SVGID_95_"  style="overflow:visible;"/>
		</clipPath>
		<line class="st52" x1="706.5" y1="226.3" x2="706" y2="223.8"/>
	</g>
</g>
</svg>
